<?xml version="1.0" encoding="UTF-8" standalone="no"?>
<!-- Created with Inkscape (http://www.inkscape.org/) -->

<svg
   version="1.1"
   id="svg11977"
   xml:space="preserve"
   width="1066.6667"
   height="1066.6667"
   viewBox="0 0 1066.6667 1066.6667"
   sodipodi:docname="sitting-woman-silhouette-vector-pdv.svg"
   inkscape:version="1.1.2 (b8e25be833, 2022-02-05)"
   xmlns:inkscape="http://www.inkscape.org/namespaces/inkscape"
   xmlns:sodipodi="http://sodipodi.sourceforge.net/DTD/sodipodi-0.dtd"
   xmlns="http://www.w3.org/2000/svg"
   xmlns:svg="http://www.w3.org/2000/svg"><defs
     id="defs11981"><clipPath
       clipPathUnits="userSpaceOnUse"
       id="clipPath11991"><path
         d="M 0,800 H 800 V 0 H 0 Z"
         id="path11989" /></clipPath></defs><sodipodi:namedview
     id="namedview11979"
     pagecolor="#ffffff"
     bordercolor="#666666"
     borderopacity="1.0"
     inkscape:pageshadow="2"
     inkscape:pageopacity="0.0"
     inkscape:pagecheckerboard="0"
     showgrid="false"
     inkscape:zoom="0.77906244"
     inkscape:cx="533.33337"
     inkscape:cy="533.33337"
     inkscape:window-width="1920"
     inkscape:window-height="1018"
     inkscape:window-x="-8"
     inkscape:window-y="-8"
     inkscape:window-maximized="1"
     inkscape:current-layer="g11983" /><g
     id="g11983"
     inkscape:groupmode="layer"
     inkscape:label="sitting-woman-silhouette-vector-pdv"
     transform="matrix(1.3333333,0,0,-1.3333333,0,1066.6667)"><g
       id="g11985"><g
         id="g11987"
         clip-path="url(#clipPath11991)"><path
           d="m 75.488,396.187 -0.341,5.323 c -0.232,-0.278 -0.381,-0.641 -0.404,-1.087 -0.007,-0.053 0,-0.093 0.007,-0.14 -0.229,-1.387 0.21,-2.781 0.738,-4.096"
           style="fill:#e04400;fill-opacity:1;fill-rule:nonzero;stroke:none"
           id="path11993" /><path
           d="m 314.925,77.89 c -0.159,-0.014 -0.324,-0.027 -0.49,-0.047 0.265,0.066 0.53,0.139 0.795,0.206 -0.106,-0.047 -0.206,-0.1 -0.305,-0.159 m 9.467,14.406 c -1.344,-1.258 -2.807,-2.358 -4.27,-3.47 -0.033,-0.026 -0.073,-0.053 -0.099,-0.079 -0.04,0 -0.08,0 -0.106,0.007 -0.053,0.007 -0.093,0.007 -0.146,0.013 -0.251,0.019 -0.516,0.052 -0.768,0.092 -0.483,0.074 -0.834,-0.224 -0.98,-0.588 -0.145,-0.093 -0.297,-0.199 -0.45,-0.305 -1.456,-0.689 -2.926,-1.363 -4.396,-2.027 -2.211,-0.999 -4.428,-1.972 -6.653,-2.925 -1.582,-0.675 -3.158,-1.351 -4.747,-1.999 -0.212,-0.093 -0.423,-0.18 -0.642,-0.266 -2.019,-0.834 -4.045,-1.668 -6.084,-2.469 -0.57,-0.225 -1.139,-0.45 -1.708,-0.669 -0.411,-0.159 -0.821,-0.317 -1.232,-0.464 -0.172,-0.065 -0.331,-0.125 -0.503,-0.184 -0.225,-0.086 -0.463,-0.173 -0.689,-0.252 -1.012,-0.37 -2.025,-0.729 -3.031,-1.099 -0.967,-0.357 -1.933,-0.728 -2.887,-1.119 -0.119,-0.046 -0.238,-0.106 -0.358,-0.166 -0.019,-0.006 -0.039,-0.013 -0.053,-0.026 -0.099,-0.046 -0.198,-0.099 -0.291,-0.152 -0.04,-0.02 -0.079,-0.046 -0.119,-0.073 -0.066,-0.04 -0.139,-0.086 -0.212,-0.133 -0.039,-0.026 -0.079,-0.059 -0.119,-0.092 -0.066,-0.046 -0.126,-0.092 -0.185,-0.146 -0.04,-0.032 -0.08,-0.065 -0.12,-0.105 -0.052,-0.054 -0.106,-0.107 -0.158,-0.16 -0.04,-0.04 -0.067,-0.079 -0.106,-0.119 -0.047,-0.052 -0.093,-0.119 -0.133,-0.185 -0.033,-0.039 -0.066,-0.079 -0.092,-0.119 -0.04,-0.073 -0.08,-0.146 -0.113,-0.225 -0.02,-0.04 -0.04,-0.08 -0.06,-0.119 -0.039,-0.119 -0.086,-0.238 -0.112,-0.371 -0.152,-0.715 0.02,-1.424 0.53,-1.867 0.053,-0.08 0.112,-0.146 0.185,-0.199 0.059,0.027 0.113,0.053 0.179,0.079 0.503,-0.529 1.403,-0.728 2.145,-0.767 1.734,-0.093 3.508,0.013 5.25,0.079 0.165,0.014 0.324,0.014 0.483,0.02 0.172,0.006 0.344,0.013 0.516,0.02 4.343,0.105 8.687,0.212 13.029,0.351 5.164,0.166 10.315,0.351 15.479,0.549 1.072,-0.039 2.144,-0.046 3.224,-0.026 4.254,0.076 8.539,0.072 12.805,0.251 l -8.957,25.05 c -0.996,-1.256 -2.076,-2.446 -3.246,-3.546"
           style="fill:#f38900;fill-opacity:1;fill-rule:nonzero;stroke:none"
           id="path11995" /><path
           d="m 327.638,95.842 8.957,-25.05 c 1.63,0.068 3.257,0.161 4.878,0.298 0.027,0.007 0.067,0.007 0.093,0.007 2.079,-0.119 4.151,-0.251 6.21,0.099 0.066,0.014 0.132,0.033 0.185,0.06 h 0.364 c 0.067,0.066 0.133,0.133 0.192,0.198 1.285,1.285 2.232,2.82 2.867,4.509 0.748,1.993 1.066,4.125 1.463,6.204 0.397,2.117 0.788,4.236 1.178,6.355 0.636,3.496 1.205,7.017 1.993,10.494 0.079,0.236 0.161,0.47 0.241,0.706 l -25.213,1.225 c -1.004,-1.788 -2.136,-3.503 -3.408,-5.105"
           style="fill:#f2da4c;fill-opacity:1;fill-rule:nonzero;stroke:none"
           id="path11997" /><path
           d="m 371.251,85.423 c 0.034,-1.019 0.067,-2.038 0.107,-3.052 0.072,-2.23 0.139,-4.469 0.198,-6.693 -0.026,-0.258 -0.053,-0.509 -0.079,-0.768 -0.08,-0.927 -0.165,-1.86 -0.133,-2.794 0,-0.132 0.007,-0.277 0.02,-0.417 -0.046,-0.178 -0.079,-0.364 -0.099,-0.549 -0.192,-2.066 3.217,-1.278 4.277,-0.933 0.298,0.098 0.437,0.37 0.384,0.681 -0.318,1.708 -0.484,3.463 -0.861,5.165 -0.232,3.707 -0.47,7.427 -0.702,11.135 -0.053,1.628 -0.099,3.257 -0.158,4.886 -0.076,2.255 -0.144,4.514 -0.138,6.772 l -3.53,0.172 c 0.288,-4.529 0.382,-9.073 0.714,-13.605"
           style="fill:#f2da4c;fill-opacity:1;fill-rule:nonzero;stroke:none"
           id="path11999" /><path
           d="m 341.129,239.454 c 1.125,-19.001 1.483,-38.048 0.953,-57.081 -0.53,-18.941 -1.9,-37.869 -4.025,-56.697 -0.205,-1.801 -0.411,-3.595 -0.582,-5.39 -0.133,-0.727 -0.279,-1.442 -0.424,-2.164 -0.729,-3.489 -1.642,-6.938 -2.86,-10.288 -0.039,-0.105 -0.08,-0.21 -0.119,-0.315 l 46.695,35.291 c -0.055,0.105 -0.107,0.21 -0.167,0.317 -0.08,0.145 -0.153,0.291 -0.232,0.436 -0.106,0.186 -0.219,0.372 -0.331,0.564 -0.073,0.112 -0.132,0.231 -0.205,0.344 -0.186,0.298 -0.371,0.59 -0.57,0.881 -0.238,0.343 -0.483,0.688 -0.735,1.019 -0.079,0.106 -0.165,0.212 -0.245,0.311 -0.172,0.225 -0.35,0.451 -0.529,0.669 -0.106,0.119 -0.212,0.238 -0.305,0.357 -0.172,0.199 -0.344,0.397 -0.529,0.59 -0.106,0.119 -0.219,0.238 -0.331,0.357 -0.172,0.186 -0.358,0.377 -0.536,0.556 -0.113,0.112 -0.233,0.231 -0.351,0.345 -0.186,0.178 -0.371,0.363 -0.556,0.536 -0.12,0.112 -0.239,0.218 -0.358,0.324 -0.199,0.179 -0.397,0.351 -0.596,0.523 -0.119,0.106 -0.238,0.206 -0.358,0.304 -0.211,0.173 -0.423,0.345 -0.635,0.517 -0.119,0.093 -0.232,0.185 -0.351,0.278 -0.219,0.172 -0.45,0.344 -0.682,0.51 -0.066,0.053 -0.139,0.112 -0.211,0.166 0,-0.007 0.006,-0.014 0.006,-0.014 -1.026,0.741 -2.092,1.444 -3.185,2.085 -0.026,0.014 -0.039,0.027 -0.066,0.04 -0.271,0.159 -0.542,0.312 -0.821,0.464 -0.086,0.046 -0.172,0.099 -0.264,0.151 -0.278,0.153 -0.557,0.299 -0.841,0.452 -0.086,0.039 -0.172,0.086 -0.258,0.131 -0.292,0.146 -0.576,0.286 -0.861,0.424 -0.086,0.04 -0.172,0.086 -0.252,0.126 -0.37,0.179 -0.741,0.351 -1.119,0.517 -0.085,0.079 -0.205,0.126 -0.324,0.139 -0.119,0.052 -0.238,0.105 -0.364,0.159 -0.291,0.125 -0.668,0.105 -0.841,-0.212 -0.106,-0.212 -0.199,-0.424 -0.291,-0.636 -0.106,-0.265 -0.212,-0.523 -0.318,-0.788 0,0.259 -0.013,0.523 -0.013,0.788 -0.185,9.189 -0.027,18.378 0.483,27.561 1.02,18.391 3.35,36.035 7.17,54.036 0.006,0.027 0.012,0.054 0.018,0.082 l -29.039,6.739 c 0.124,-1.834 0.247,-3.668 0.355,-5.504"
           style="fill:#ffd100;fill-opacity:1;fill-rule:nonzero;stroke:none"
           id="path12001" /><path
           d="m 370.788,111.217 c 0.013,-0.14 0.027,-0.279 0.04,-0.41 -0.027,0.138 -0.053,0.277 -0.086,0.41 z m -39.742,-10.27 25.213,-1.225 c 0.181,0.535 0.363,1.071 0.547,1.604 0.901,2.661 1.681,5.415 2.853,7.971 1.026,2.237 2.496,4.488 4.813,5.548 1.033,0.463 2.198,0.615 3.298,0.344 0.039,-0.013 0.065,-0.02 0.099,-0.027 0.218,-0.682 0.43,-1.363 0.615,-2.065 0.828,-3.112 1.351,-6.31 1.682,-9.521 0.156,-1.513 0.274,-3.03 0.371,-4.548 l 3.53,-0.172 c 0.004,1.522 0.041,3.043 0.138,4.562 0.026,0.417 0.066,0.841 0.099,1.258 0.006,0.138 0.02,0.271 0.032,0.41 0.027,0.292 0.06,0.583 0.094,0.874 0.012,0.152 0.033,0.305 0.052,0.463 0.034,0.278 0.067,0.556 0.106,0.835 0.027,0.145 0.047,0.304 0.066,0.45 0.054,0.317 0.1,0.636 0.159,0.939 0.014,0.114 0.027,0.226 0.054,0.332 0.072,0.411 0.158,0.821 0.238,1.231 0.026,0.119 0.06,0.239 0.092,0.364 0.067,0.292 0.133,0.589 0.206,0.881 0.033,0.152 0.079,0.305 0.125,0.463 0.212,0.795 0.451,1.59 0.729,2.37 1.172,3.324 3.025,6.336 4.422,9.561 0.027,0.066 0.053,0.132 0.086,0.205 0.199,0.41 0.391,0.827 0.576,1.251 0.007,0.013 0.013,0.033 0.027,0.053 h -0.007 c 0.476,1.085 0.894,2.198 1.211,3.356 0.067,0.265 0.133,0.537 0.186,0.802 l 0.007,-0.007 c 0.006,0.047 0.019,0.093 0.033,0.138 h -0.007 c 0.04,0.186 0.073,0.372 0.106,0.557 0.007,0 0.007,0.007 0.007,0.007 0.013,0.099 0.026,0.198 0.039,0.298 0.04,0.191 0.067,0.384 0.093,0.576 0.013,0.151 0.027,0.311 0.047,0.47 0.019,0.191 0.039,0.383 0.052,0.582 0.007,0.145 0.013,0.299 0.02,0.444 0.007,0.205 0.013,0.41 0.013,0.615 v 0.398 c -0.006,0.219 -0.006,0.436 -0.02,0.655 -0.006,0.1 -0.013,0.191 -0.019,0.298 -0.08,1.184 -0.272,2.363 -0.563,3.522 -0.02,0.073 -0.033,0.146 -0.053,0.218 v 0.007 c -0.318,1.205 -0.748,2.384 -1.265,3.522 l 0.014,-0.013 c -0.054,0.119 -0.119,0.231 -0.173,0.344 -0.072,0.166 -0.145,0.332 -0.231,0.49 -0.03,0.056 -0.062,0.116 -0.091,0.173 l -46.695,-35.291 c -0.838,-2.253 -1.843,-4.463 -3.026,-6.572"
           style="fill:#f9ed2f;fill-opacity:1;fill-rule:nonzero;stroke:none"
           id="path12003" /><path
           d="m 408.479,324.501 c 2.386,-1.261 4.775,-2.515 7.169,-3.755 11.003,-5.7 22.046,-11.314 33.207,-16.69 0.218,-0.104 0.436,-0.208 0.653,-0.312 l -11.137,39.623 z"
           style="fill:#ffce00;fill-opacity:1;fill-rule:nonzero;stroke:none"
           id="path12005" /><path
           d="m 340.774,244.958 29.039,-6.739 c 1.916,9.014 4.273,17.905 6.708,26.797 2.397,8.772 4.748,17.577 6.078,26.587 0.851,5.751 1.316,11.524 1.172,17.304 l -46.312,-29.23 c 1.432,-11.537 2.533,-23.114 3.315,-34.719"
           style="fill:#ffce00;fill-opacity:1;fill-rule:nonzero;stroke:none"
           id="path12007" /><path
           d="m 75.65,395.788 c 0.106,-0.258 0.219,-0.516 0.331,-0.767 0.444,-1.377 0.914,-2.748 1.417,-4.105 0.185,-0.517 0.384,-1.033 0.582,-1.55 v 0.014 c 0.077,-0.2 0.155,-0.398 0.231,-0.597 l 1.627,11.48 c -0.234,0.235 -0.472,0.475 -0.719,0.703 -0.066,0.059 -0.139,0.126 -0.211,0.185 -0.007,0.006 -0.013,0.013 -0.013,0.013 -0.067,0.053 -0.133,0.107 -0.199,0.159 -0.02,0.013 -0.04,0.033 -0.067,0.046 -0.046,0.04 -0.092,0.08 -0.146,0.113 -0.025,0.027 -0.052,0.039 -0.079,0.053 -0.052,0.039 -0.099,0.066 -0.145,0.1 -0.033,0.019 -0.067,0.032 -0.093,0.053 -0.046,0.033 -0.093,0.059 -0.145,0.085 -0.027,0.014 -0.06,0.027 -0.093,0.046 -0.053,0.021 -0.099,0.047 -0.153,0.074 -0.033,0.012 -0.059,0.026 -0.092,0.04 -0.06,0.019 -0.113,0.039 -0.172,0.058 -0.027,0.007 -0.06,0.021 -0.086,0.033 -0.08,0.027 -0.173,0.047 -0.265,0.067 -0.799,0.166 -1.564,-0.044 -2.013,-0.581 l 0.341,-5.323 c 0.054,-0.133 0.107,-0.267 0.162,-0.399"
           style="fill:#df2c00;fill-opacity:1;fill-rule:nonzero;stroke:none"
           id="path12009" /><path
           d="m 519.209,278.906 c 2.07,-0.553 4.169,-0.663 6.285,-0.265 0.225,0.039 0.444,0.086 0.662,0.138 0.079,0.014 0.158,0.04 0.239,0.053 0.019,0.014 0.039,0.014 0.066,0.026 0.059,0.014 0.119,0.027 0.172,0.04 0.066,0.013 0.119,0.027 0.172,0.046 0.092,0.028 0.185,0.047 0.278,0.074 0.132,0.04 0.265,0.08 0.397,0.126 0.092,0.026 0.172,0.052 0.252,0.079 0.199,0.059 0.397,0.126 0.582,0.198 0.08,0.02 0.146,0.047 0.219,0.073 0.125,0.054 0.258,0.093 0.391,0.146 0.748,0.292 1.488,0.602 2.211,0.926 0.688,0.305 1.324,0.657 1.92,1.08 0.178,-0.06 0.363,-0.12 0.555,-0.172 0.478,-0.126 0.96,-0.219 1.444,-0.272 0.066,-0.007 0.145,-0.014 0.218,-0.014 0.126,-0.012 0.246,-0.025 0.365,-0.039 0.211,-0.006 0.41,-0.013 0.622,-0.013 3.589,-0.735 7.468,-0.146 10.936,1.099 0.399,0.139 0.809,0.298 1.205,0.457 0.114,0.046 0.226,0.099 0.338,0.139 0.311,0.133 0.616,0.265 0.914,0.404 0.099,0.046 0.205,0.086 0.297,0.139 0.399,0.179 0.789,0.371 1.18,0.569 0.039,0.02 0.079,0.04 0.119,0.067 0.351,0.172 0.701,0.364 1.045,0.555 0.094,0.053 0.186,0.107 0.285,0.16 0.324,0.185 0.649,0.377 0.973,0.569 0.053,0.039 0.113,0.072 0.173,0.105 0.383,0.239 0.768,0.477 1.138,0.729 0.04,0.026 0.086,0.053 0.126,0.08 0.338,0.225 0.668,0.449 1,0.688 0.066,0.046 0.139,0.092 0.211,0.146 1.1,0.781 2.158,1.615 3.178,2.476 v -0.007 c 0.04,0.04 0.086,0.073 0.133,0.112 0.244,0.212 0.49,0.425 0.728,0.636 0.079,0.066 0.158,0.146 0.244,0.212 0.312,0.278 0.617,0.556 0.914,0.834 0.868,0.808 1.696,1.642 2.497,2.509 0.091,0.099 0.185,0.193 0.271,0.291 0.43,0.47 0.86,0.954 1.277,1.444 2.754,3.032 5.112,6.434 6.952,10.102 1.072,2.139 1.986,4.364 2.728,6.647 0.092,0.225 0.178,0.451 0.264,0.669 1.073,2.708 1.867,5.495 2.397,8.354 0.079,0.392 0.146,0.783 0.205,1.173 0.013,0.079 0.02,0.152 0.034,0.232 0.053,0.318 0.098,0.635 0.145,0.947 0.007,0.065 0.014,0.132 0.02,0.191 0.046,0.331 0.085,0.662 0.126,0.993 0,0.04 0.006,0.08 0.013,0.126 0.04,0.351 0.066,0.708 0.106,1.06 v 0.065 c 0.033,0.378 0.059,0.748 0.087,1.12 v 0.013 c 0.072,1.178 0.105,2.357 0.098,3.535 -0.012,3.026 -0.278,6.051 -0.774,9.077 -0.047,0.297 -0.1,0.589 -0.153,0.893 -0.066,0.596 -0.158,1.192 -0.245,1.787 -0.019,0.153 -0.046,0.305 -0.073,0.451 -0.092,0.582 -0.185,1.159 -0.297,1.735 -0.02,0.093 -0.033,0.178 -0.047,0.264 -0.099,0.496 -0.199,0.994 -0.311,1.484 -0.04,0.184 -0.072,0.363 -0.118,0.542 -0.119,0.543 -0.246,1.073 -0.378,1.616 -0.046,0.165 -0.093,0.337 -0.14,0.509 -0.1,0.404 -0.205,0.802 -0.324,1.205 -0.053,0.206 -0.112,0.418 -0.172,0.629 -0.014,0.053 -0.026,0.113 -0.047,0.173 v -0.021 c -0.522,1.821 -1.111,3.622 -1.76,5.409 -0.106,0.358 -0.218,0.715 -0.325,1.073 -1.522,5.071 -3.323,10.063 -5.567,14.856 -0.06,0.186 -0.114,0.371 -0.166,0.55 -0.365,1.18 -0.762,2.356 -1.191,3.521 L 438.371,343.367 Z"
           style="fill:#f0d03e;fill-opacity:1;fill-rule:nonzero;stroke:none"
           id="path12011" /><path
           d="m 449.508,303.744 c 11.322,-5.438 22.841,-10.704 34.741,-14.796 5.944,-2.046 12.022,-3.654 18.259,-4.462 2.794,-0.357 5.64,-0.543 8.447,-0.39 0.451,-0.021 0.9,-0.033 1.338,-0.033 -0.391,-0.352 -0.51,-0.901 -0.238,-1.437 0.331,-0.669 1.019,-1.172 1.781,-1.556 0.642,-0.437 1.43,-0.716 2.138,-1.007 0.926,-0.39 1.854,-0.76 2.821,-1.045 0.138,-0.041 0.275,-0.075 0.414,-0.112 l -80.838,64.461 z"
           style="fill:#f6e63c;fill-opacity:1;fill-rule:nonzero;stroke:none"
           id="path12013" /><path
           d="m 620.947,317.323 c -0.04,-0.787 -0.066,-1.576 -0.099,-2.357 0.033,-0.377 0.066,-0.748 0.099,-1.125 0.344,-4.211 0.709,-8.407 1.258,-12.606 0.079,-0.595 0.158,-1.191 0.238,-1.787 0.027,-0.172 0.053,-0.35 0.079,-0.523 0.067,-0.496 0.133,-0.987 0.212,-1.476 0.014,-0.152 0.04,-0.304 0.067,-0.45 0.093,-0.623 0.185,-1.245 0.291,-1.867 0.019,-0.107 0.04,-0.212 0.053,-0.319 0.093,-0.509 0.185,-1.025 0.285,-1.535 0.019,-0.092 0.033,-0.192 0.052,-0.285 v 0.014 c 0.247,-1.225 0.51,-2.444 0.829,-3.649 0.436,-1.674 1.039,-3.349 1.965,-4.819 0.716,-0.834 1.53,-1.583 2.451,-2.265 1.992,-1.482 4.044,-2.885 6.003,-4.421 1.02,-0.815 2.04,-1.629 3.059,-2.45 0,0 0.007,0 0.014,-0.007 0.39,-0.318 0.787,-0.628 1.191,-0.947 0.159,-0.132 0.331,-0.264 0.496,-0.396 0.551,-0.431 1.114,-0.862 1.676,-1.285 1.092,-0.814 2.197,-1.622 3.283,-2.437 0.848,-0.391 1.701,-0.694 2.596,-0.979 1.549,-0.477 3.125,-0.887 4.687,-1.325 0.02,-0.006 0.039,-0.006 0.067,-0.012 0.943,-0.1 1.897,-0.193 2.847,-0.168 l -6.949,10.529 c -1.006,0.463 -1.98,0.97 -2.916,1.556 -0.213,0.131 -0.411,0.277 -0.623,0.41 -0.026,0.026 -0.053,0.04 -0.08,0.059 -0.211,0.153 -0.423,0.298 -0.635,0.457 -0.019,0.02 -0.04,0.039 -0.066,0.06 -0.106,0.079 -0.211,0.165 -0.318,0.251 -0.013,0.007 -0.02,0.019 -0.026,0.019 -0.099,0.081 -0.199,0.166 -0.292,0.252 -0.026,0.014 -0.04,0.028 -0.059,0.047 -0.086,0.073 -0.179,0.153 -0.265,0.232 -0.033,0.026 -0.06,0.052 -0.086,0.079 -0.079,0.073 -0.159,0.145 -0.226,0.212 -0.039,0.04 -0.079,0.08 -0.119,0.119 -0.065,0.066 -0.132,0.126 -0.198,0.192 -0.046,0.047 -0.093,0.1 -0.14,0.153 -0.052,0.059 -0.105,0.112 -0.151,0.172 -0.066,0.066 -0.12,0.132 -0.173,0.205 -0.039,0.046 -0.078,0.086 -0.119,0.126 -0.086,0.119 -0.172,0.238 -0.264,0.357 -0.966,1.046 -1.788,2.265 -2.166,3.602 -0.005,0.04 -0.005,0.079 0.008,0.119 -0.113,0.205 -0.219,0.417 -0.318,0.635 0.007,0.451 0.053,0.901 0.105,1.351 0.099,0.785 0.28,1.524 0.677,2.138 l -18.237,27.633 c -0.015,-0.497 -0.037,-0.993 -0.063,-1.489"
           style="fill:#c7df70;fill-opacity:1;fill-rule:nonzero;stroke:none"
           id="path12015" /><path
           d="m 338.748,414.636 -15.426,-60.684 c 0.175,-0.689 0.35,-1.379 0.521,-2.07 0.324,-1.298 0.642,-2.589 0.953,-3.88 0.073,-0.291 0.139,-0.582 0.212,-0.874 0.259,-1.046 0.51,-2.092 0.755,-3.145 0.059,-0.251 0.119,-0.509 0.178,-0.761 0.266,-1.139 0.53,-2.271 0.795,-3.403 0.04,-0.158 0.073,-0.31 0.106,-0.463 0.304,-1.304 0.596,-2.608 0.894,-3.919 2.932,-13.069 5.468,-26.217 7.488,-39.491 0.822,-5.414 1.561,-10.838 2.235,-16.269 l 46.312,29.23 c -0.064,2.584 -0.249,5.169 -0.576,7.754 -0.967,7.554 -2.807,14.929 -5.68,21.986 -0.649,1.582 -1.331,3.132 -2.066,4.655 10.752,-6.702 21.83,-12.878 33.03,-18.801 l 29.892,18.866 z"
           style="fill:#feb200;fill-opacity:1;fill-rule:nonzero;stroke:none"
           id="path12017" /><path
           d="m 111.321,319.772 c 0,0.001 -0.003,0.006 -0.004,0.008 -0.036,0.044 -0.072,0.09 -0.102,0.139 0.04,-0.054 0.073,-0.093 0.106,-0.147"
           style="fill:#f35c00;fill-opacity:1;fill-rule:nonzero;stroke:none"
           id="path12019" /><path
           d="m 88.931,372.193 c 0.092,-0.192 0.185,-0.378 0.285,-0.569 0.006,-0.053 0.026,-0.105 0.033,-0.165 -0.12,0.244 -0.232,0.489 -0.351,0.734 z m -4.992,3.059 c 0.199,-0.464 0.404,-0.921 0.609,-1.377 0.622,-1.377 1.245,-2.754 1.88,-4.125 0.205,-0.456 0.411,-0.906 0.623,-1.356 0.417,-0.901 0.834,-1.795 1.251,-2.689 0,0 0,0.007 0.007,0.014 0.277,-0.597 0.556,-1.205 0.834,-1.801 0,-0.007 0.006,-0.014 0.013,-0.014 0.847,-1.807 1.715,-3.601 2.589,-5.388 0.258,-0.543 0.529,-1.073 0.8,-1.609 0.133,-0.311 0.272,-0.616 0.411,-0.927 0.834,-1.926 1.675,-3.846 2.516,-5.766 0.086,-0.199 0.172,-0.404 0.258,-0.61 0.033,-0.079 0.073,-0.171 0.112,-0.251 0.067,-0.165 0.139,-0.331 0.213,-0.503 0.039,-0.1 0.086,-0.205 0.132,-0.305 0.04,-0.093 0.08,-0.192 0.119,-0.284 0.053,-0.126 0.119,-0.259 0.172,-0.378 0.04,-0.092 0.08,-0.179 0.119,-0.265 0.079,-0.159 0.146,-0.31 0.225,-0.463 0.04,-0.08 0.08,-0.146 0.113,-0.225 0.06,-0.106 0.112,-0.225 0.178,-0.331 0.04,-0.079 0.08,-0.16 0.126,-0.232 0.027,-0.046 0.053,-0.093 0.08,-0.139 v 0.006 c 0.179,-0.31 0.371,-0.615 0.582,-0.906 0.087,-0.12 0.18,-0.232 0.272,-0.345 0.013,-0.026 0.033,-0.045 0.053,-0.066 0.066,-0.086 0.132,-0.165 0.205,-0.245 0.06,-0.067 0.126,-0.139 0.192,-0.205 0.066,-0.072 0.146,-0.146 0.218,-0.218 0.06,-0.06 0.126,-0.126 0.193,-0.186 0.079,-0.073 0.158,-0.139 0.238,-0.205 0.066,-0.053 0.132,-0.106 0.205,-0.159 0.08,-0.066 0.166,-0.133 0.245,-0.185 0.066,-0.053 0.146,-0.1 0.212,-0.146 0.086,-0.053 0.172,-0.119 0.258,-0.172 0.066,-0.04 0.139,-0.073 0.205,-0.113 0.172,-0.099 0.352,-0.191 0.53,-0.277 0.079,-0.034 0.146,-0.074 0.225,-0.107 0.093,-0.039 0.185,-0.073 0.278,-0.112 0.079,-0.033 0.159,-0.066 0.238,-0.093 0.1,-0.04 0.192,-0.066 0.292,-0.093 0.079,-0.026 0.159,-0.059 0.251,-0.079 0.093,-0.033 0.185,-0.052 0.285,-0.08 0.086,-0.026 0.172,-0.046 0.258,-0.065 0.093,-0.028 0.199,-0.04 0.291,-0.067 0.093,-0.013 0.179,-0.027 0.266,-0.047 0.099,-0.019 0.198,-0.033 0.297,-0.045 0.086,-0.014 0.179,-0.027 0.271,-0.034 0.1,-0.012 0.199,-0.026 0.298,-0.033 0.093,-0.013 0.186,-0.013 0.279,-0.019 0.179,-0.014 0.364,-0.021 0.543,-0.021 0.099,-0.006 0.205,-0.013 0.311,-0.013 0.099,0 0.205,0.007 0.311,0.013 h 0.232 c 0.251,0.014 0.496,0.027 0.741,0.054 3.76,0.364 7.468,1.502 11.142,2.316 3.833,0.862 7.7,1.643 11.599,2.146 4.178,0.543 8.587,0.946 12.625,-0.543 1.562,-0.57 2.966,-1.41 4.304,-2.358 -0.099,-1.105 -0.338,-2.217 -0.722,-3.269 -1.933,-1.867 -4.23,-3.311 -6.574,-4.622 -2.728,-1.516 -5.561,-2.86 -8.342,-4.289 -3.005,-1.536 -5.998,-3.113 -9.004,-4.642 -1.615,-0.82 -3.244,-1.608 -4.925,-2.283 -1.602,-0.65 -3.258,-1.245 -4.793,-2.06 -0.06,0.007 -0.126,0.02 -0.199,0.02 -0.331,0 -0.636,-0.158 -0.834,-0.423 -0.093,-0.106 -0.146,-0.238 -0.185,-0.371 l -0.007,0.014 c -0.113,-0.517 0.046,-1.047 0.357,-1.471 -0.051,0.064 0.26,-0.289 0.281,-0.35 0.004,-0.004 0.007,-0.009 0.011,-0.013 h -0.007 c 0.007,-0.007 0.013,-0.007 0.013,-0.014 0.067,-0.072 0.132,-0.139 0.212,-0.192 0.225,-0.232 0.55,-0.371 0.894,-0.331 0.1,0 0.205,0.013 0.311,0.04 0.159,0.04 0.338,0.145 0.477,0.271 2.833,1.311 5.826,2.198 8.646,3.556 0.735,0.343 1.457,0.715 2.185,1.086 0.013,0.005 0.033,0.012 0.053,0.026 0.728,0.37 1.45,0.755 2.171,1.139 0.45,0.238 0.894,0.476 1.344,0.715 0.444,0.238 0.894,0.476 1.331,0.714 0.152,0.079 0.304,0.16 0.45,0.239 0.53,0.278 1.059,0.556 1.589,0.834 1.258,0.649 2.529,1.291 3.8,1.92 0.337,0.166 0.682,0.331 1.019,0.502 0.55,0.266 1.1,0.517 1.649,0.782 0.338,0.152 0.675,0.311 1.013,0.464 0.516,0.238 1.033,0.476 1.549,0.702 0.291,0.132 0.57,0.251 0.861,0.37 0.45,0.199 0.9,0.397 1.35,0.583 0.291,0.125 0.596,0.244 0.887,0.371 0.457,0.185 0.914,0.363 1.371,0.542 0.285,0.119 0.576,0.226 0.867,0.338 0.497,0.192 1,0.377 1.503,0.555 0.245,0.094 0.496,0.186 0.748,0.272 0.748,0.266 1.51,0.523 2.264,0.769 0.311,0.105 0.623,0.198 0.934,0.291 l 2.013,-0.246 c 0.681,-0.086 1.357,-0.165 2.045,-0.244 0.543,-0.073 1.092,-0.139 1.642,-0.206 0.377,-0.046 0.755,-0.093 1.139,-0.138 2.992,-0.358 6.051,-0.636 9.023,0.052 0.179,0.04 0.351,0.093 0.523,0.14 0.02,0.006 0.04,0.013 0.067,0.019 0.145,0.04 0.298,0.093 0.45,0.139 0.006,0.007 0.013,0.007 0.026,0.007 2.251,0.755 4.237,2.158 5.84,3.919 1.827,1.986 3.217,4.316 4.501,6.686 0.755,1.405 1.47,2.834 2.119,4.29 0.046,0.107 0.092,0.212 0.133,0.319 0.132,0.291 0.257,0.589 0.383,0.887 0.053,0.126 0.106,0.252 0.159,0.383 0.113,0.286 0.225,0.577 0.338,0.868 0.046,0.126 0.092,0.245 0.139,0.364 0.152,0.404 0.297,0.814 0.437,1.225 0.926,2.735 2.125,6.19 -0.226,8.547 -0.132,0.132 -0.264,0.251 -0.396,0.37 -0.027,0.021 -0.054,0.04 -0.074,0.053 -0.132,0.107 -0.264,0.213 -0.403,0.305 -0.027,0.013 -0.053,0.027 -0.08,0.054 -0.066,0.032 -0.126,0.072 -0.185,0.105 1.185,0.495 2.375,0.979 3.567,1.46 l -47.348,5.375 c -1.792,-0.29 -3.593,-0.527 -5.409,-0.691 -2.873,-0.265 -5.832,-0.477 -8.699,-0.132 -2.727,0.331 -5.389,0.933 -7.984,1.827 -0.404,0.145 -0.808,0.291 -1.205,0.436 -1.721,0.48 -3.41,1.073 -5.055,1.778 l -25.18,2.858 c 0.277,-0.622 0.547,-1.248 0.827,-1.868"
           style="fill:#f35c00;fill-opacity:1;fill-rule:nonzero;stroke:none"
           id="path12021" /><path
           d="m 686.654,269.232 c 0.742,-0.336 1.496,-0.641 2.272,-0.886 0.384,-0.159 0.774,-0.291 1.178,-0.417 0.583,-0.172 1.271,-0.312 1.972,-0.378 0.756,0.033 1.517,0.133 2.225,0.397 0.119,0.053 0.232,0.107 0.345,0.159 0.033,0.027 0.065,0.04 0.099,0.066 0.073,0.04 0.139,0.08 0.205,0.12 0.04,0.026 0.073,0.053 0.106,0.086 0.059,0.039 0.12,0.086 0.173,0.126 0.033,0.026 0.066,0.065 0.105,0.093 0.047,0.046 0.093,0.091 0.146,0.138 0.033,0.034 0.066,0.066 0.099,0.1 0.046,0.053 0.093,0.099 0.14,0.145 0.025,0.04 0.058,0.08 0.092,0.113 0.04,0.046 0.092,0.099 0.132,0.152 0.027,0.04 0.059,0.079 0.092,0.119 0.054,0.06 0.1,0.119 0.153,0.185 0.08,0.106 0.166,0.212 0.246,0.318 0.025,0.291 -0.074,0.622 -0.292,0.808 -0.279,0.225 -0.55,0.464 -0.822,0.695 v -0.007 c -0.529,0.45 -1.046,0.914 -1.549,1.377 0.206,-0.079 0.417,-0.152 0.636,-0.224 0.079,-0.027 0.159,-0.053 0.239,-0.08 0.131,-0.04 0.264,-0.086 0.403,-0.125 0.099,-0.034 0.205,-0.06 0.299,-0.087 0.125,-0.033 0.244,-0.066 0.371,-0.093 0.105,-0.026 0.211,-0.053 0.316,-0.079 0.047,-0.013 0.094,-0.027 0.133,-0.04 0,0.007 0,0.013 -0.006,0.013 1.131,-0.257 2.303,-0.39 3.436,-0.324 0.212,0.06 0.423,0.126 0.629,0.198 0.337,0.252 0.655,0.543 0.933,0.868 0.391,0.45 0.689,0.94 0.967,1.457 -0.438,0.357 -0.834,0.834 -1.231,1.284 -0.841,0.748 -1.669,1.522 -2.49,2.304 -1.703,1.587 -3.498,3.069 -5.322,4.513 l -8.113,-12.241 c 0.551,-0.304 1.111,-0.591 1.683,-0.853"
           style="fill:#b5b995;fill-opacity:1;fill-rule:nonzero;stroke:none"
           id="path12023" /><path
           d="m 670.832,275.297 c 0.311,0.954 0.391,1.86 0.291,2.741 0.45,-0.212 0.895,-0.417 1.344,-0.629 0.119,-0.06 0.238,-0.119 0.357,-0.179 0.332,-0.159 0.662,-0.331 0.994,-0.49 0.125,-0.066 0.251,-0.133 0.37,-0.185 0.345,-0.186 0.689,-0.365 1.033,-0.55 0.093,-0.046 0.185,-0.099 0.279,-0.146 0.436,-0.231 0.867,-0.469 1.297,-0.721 1.179,-0.668 2.344,-1.377 3.496,-2.132 1.533,-1.001 3.067,-2.035 4.678,-2.921 l 8.113,12.241 c -2.159,1.711 -4.361,3.37 -6.516,5.086 -1.966,1.569 -3.892,3.192 -5.759,4.879 -1.596,1.352 -3.171,2.722 -4.741,4.099 -0.012,0.08 -0.039,0.159 -0.052,0.231 v 0.014 c -0.027,0.079 -0.053,0.158 -0.073,0.238 l 0.006,-0.007 c -0.039,0.146 -0.079,0.279 -0.119,0.417 -0.047,0.153 -0.086,0.305 -0.133,0.457 -0.012,0.027 -0.019,0.053 -0.025,0.079 -0.107,0.331 -0.226,0.676 -0.345,1.007 -0.682,1.066 -1.291,2.185 -1.927,3.237 -1.423,2.344 -2.985,4.601 -4.488,6.892 -0.748,1.152 -1.496,2.304 -2.205,3.476 -0.061,0.1 -0.121,0.201 -0.182,0.302 l 1.553,-41.219 c 1.511,0.373 2.302,2.38 2.754,3.783"
           style="fill:#c2b267;fill-opacity:1;fill-rule:nonzero;stroke:none"
           id="path12025" /><path
           d="m 654.857,267.849 c 0.264,0.113 0.516,0.258 0.761,0.43 0.14,0.106 0.272,0.212 0.403,0.331 0.028,0.027 0.054,0.053 0.081,0.074 0.119,0.112 0.224,0.224 0.331,0.343 0.04,0.04 0.073,0.079 0.106,0.126 0.025,0.027 0.053,0.047 0.065,0.079 0,-0.006 0,-0.006 -0.006,-0.006 0.213,0.258 0.404,0.536 0.556,0.84 -0.138,0.226 -0.285,0.445 -0.429,0.657 -0.809,1.172 -1.669,2.409 -2.722,3.376 -1.086,1 -2.622,1.655 -3.728,2.681 -0.555,0.291 -1.086,0.609 -1.609,0.947 -0.311,0.205 -0.615,0.41 -0.912,0.622 -0.02,0.008 -0.037,0.017 -0.057,0.027 l 6.949,-10.529 c 0.071,0.002 0.141,-10e-4 0.211,0.002"
           style="fill:#d3bf54;fill-opacity:1;fill-rule:nonzero;stroke:none"
           id="path12027" /><path
           d="m 629.554,345.381 c 0.012,-0.027 0.026,-0.053 0.033,-0.08 -0.014,-0.02 -0.033,-0.039 -0.06,-0.066 -0.006,0.013 -0.013,0.027 -0.019,0.039 -0.021,0.027 -0.028,0.047 -0.033,0.067 0.026,0.013 0.052,0.026 0.079,0.04 m -35.419,34.942 c 1.522,-3.932 3.025,-7.885 4.488,-11.844 0.715,-1.933 1.416,-3.866 2.106,-5.806 0.357,-0.993 0.701,-1.992 1.052,-2.992 0.198,-0.556 0.377,-1.125 0.61,-1.682 0.158,-0.371 0.377,-0.708 0.615,-1.032 0.238,-1.232 0.463,-2.477 0.741,-3.695 v -0.006 c 0.212,-0.934 0.45,-1.854 0.741,-2.754 0.862,-2.629 2.212,-4.966 4.444,-6.654 0.184,-0.146 0.382,-0.278 0.588,-0.404 1.033,-1.013 2.251,-1.847 3.602,-2.357 0.212,-0.364 0.41,-0.735 0.622,-1.106 1.192,-2.164 2.358,-4.356 3.483,-6.547 1.628,-3.184 3.085,-6.535 3.587,-10.103 0.209,-1.505 0.239,-3.018 0.196,-4.529 l 18.237,-27.633 c 0.245,0.379 0.573,0.711 1.019,0.973 0.49,0.291 0.96,0.424 1.443,0.477 0.471,-0.424 0.953,-0.834 1.443,-1.232 3.324,-2.673 7.031,-4.779 10.917,-6.52 2.747,-1.226 5.554,-2.298 8.369,-3.356 0.416,-1.656 1.098,-3.271 1.648,-4.874 0.357,-1.039 0.688,-2.091 1.072,-3.118 0.305,-0.827 0.768,-1.688 1.676,-1.966 0.462,-0.138 0.873,-0.141 1.244,-0.049 l -1.553,41.219 c -0.652,1.097 -1.244,2.246 -2.055,3.233 -0.967,1.185 -2.146,2.165 -3.264,3.211 -0.974,0.45 -1.927,0.94 -2.88,1.443 -0.013,0.007 -0.04,0.014 -0.053,0.026 -0.847,0.444 -1.681,0.901 -2.529,1.365 -1.536,0.847 -3.072,1.708 -4.628,2.515 -1.45,0.761 -2.919,1.517 -4.243,2.49 -2.112,1.562 -3.47,3.747 -4.687,6.024 -0.279,0.529 -0.557,1.06 -0.829,1.596 -0.152,0.298 -0.31,0.595 -0.462,0.893 -1.106,2.118 -2.337,4.164 -3.49,6.25 -0.105,0.179 -0.198,0.358 -0.303,0.543 -0.133,0.245 -0.266,0.491 -0.398,0.741 -0.093,0.172 -0.185,0.345 -0.278,0.517 -0.139,0.278 -0.279,0.556 -0.424,0.834 -0.066,0.146 -0.146,0.291 -0.219,0.437 -0.205,0.423 -0.416,0.854 -0.609,1.284 -0.211,0.477 -0.416,0.961 -0.615,1.437 0.418,0.331 0.787,0.722 1.099,1.185 1.43,2.065 0.688,4.733 -0.291,6.806 -0.57,1.205 -1.259,2.357 -1.921,3.522 -0.173,0.291 -0.337,0.589 -0.503,0.888 -0.047,0.086 -0.092,0.172 -0.132,0.251 -0.199,0.357 -0.384,0.714 -0.556,1.072 -0.96,1.999 -1.596,3.575 -2.37,5.773 -2.98,8.474 -4.409,17.371 -6.475,26.084 -0.142,0.602 -0.289,1.203 -0.438,1.805 l -30.396,-10.604 z"
           style="fill:#d3bf54;fill-opacity:1;fill-rule:nonzero;stroke:none"
           id="path12029" /><path
           d="m 275.538,386.856 c 0.454,0.042 0.908,0.084 1.359,0.127 h 0.041 c 0.462,0.046 0.926,0.093 1.396,0.139 0.02,0 0.034,0.007 0.06,0.007 1.337,0.133 2.674,0.265 4.012,0.41 0.093,0.007 0.185,0.014 0.278,0.026 0.291,0.034 0.582,0.067 0.874,0.1 0.212,0.021 0.43,0.047 0.642,0.073 0.258,0.027 0.523,0.06 0.787,0.093 0.239,0.026 0.477,0.053 0.722,0.079 0.252,0.033 0.503,0.067 0.749,0.093 0.251,0.039 0.502,0.066 0.754,0.099 0.252,0.034 0.49,0.06 0.742,0.099 0.251,0.028 0.516,0.067 0.768,0.1 l 0.715,0.099 c 0.265,0.039 0.529,0.079 0.794,0.113 0.231,0.033 0.47,0.072 0.702,0.105 0.265,0.04 0.536,0.08 0.807,0.126 0.226,0.033 0.45,0.067 0.683,0.107 0.271,0.039 0.549,0.092 0.821,0.131 0.224,0.04 0.443,0.081 0.668,0.113 0.278,0.047 0.563,0.099 0.84,0.152 0.219,0.04 0.432,0.073 0.649,0.113 0.299,0.06 0.59,0.113 0.881,0.165 0.198,0.04 0.397,0.08 0.602,0.12 0.325,0.066 0.656,0.132 0.973,0.199 0.173,0.032 0.338,0.065 0.504,0.105 0.49,0.107 0.986,0.212 1.476,0.318 4.131,0.94 8.183,2.112 12.109,3.615 3.747,0.795 7.435,1.867 11.016,3.23 1.503,0.576 2.986,1.192 4.449,1.848 -1.403,-1.583 -2.608,-3.33 -3.575,-5.204 -0.158,-0.258 -0.317,-0.51 -0.477,-0.775 -0.072,-0.066 -0.145,-0.132 -0.224,-0.185 -0.57,-0.927 -1.073,-1.894 -1.523,-2.9 -1.602,-3.111 -2.82,-6.514 -2.543,-9.977 -0.059,-0.205 -0.118,-0.403 -0.178,-0.603 0.139,-1.165 0.324,-2.316 0.523,-3.462 0.417,-2.31 0.801,-4.621 1.191,-6.931 0.054,-0.305 0.106,-0.61 0.159,-0.913 0.755,-4.39 1.576,-8.767 2.331,-13.156 0.076,-0.301 0.151,-0.601 0.227,-0.902 l 15.426,60.684 z"
           style="fill:#fe9400;fill-opacity:1;fill-rule:nonzero;stroke:none"
           id="path12031" /><path
           d="m 201.067,371.962 c 2.626,0.878 5.246,1.713 7.868,2.513 l -12.317,16.487 c -7.278,-2.779 -14.599,-5.453 -21.887,-8.216 -3.688,-1.396 -7.381,-2.787 -11.096,-4.131 -1.363,-0.543 -2.767,-1.026 -4.163,-1.496 -3.907,-1.384 -7.82,-2.741 -11.831,-3.801 -2.404,-0.634 -4.833,-1.171 -7.289,-1.594 -1.232,-0.258 -2.469,-0.48 -3.708,-0.68 l 47.348,-5.375 c 5.629,2.266 11.322,4.364 17.075,6.293"
           style="fill:#f04f00;fill-opacity:1;fill-rule:nonzero;stroke:none"
           id="path12033" /><path
           d="m 79.239,386.188 v -0.012 c 0.032,-0.086 0.066,-0.172 0.106,-0.265 0.33,-0.802 0.661,-1.602 0.992,-2.397 0.08,-0.192 0.159,-0.384 0.239,-0.582 0.424,-0.987 0.847,-1.973 1.271,-2.953 0.416,-0.957 0.842,-1.907 1.265,-2.859 l 25.18,-2.858 c -0.355,0.152 -0.711,0.303 -1.063,0.467 -0.887,0.404 -1.747,0.854 -2.594,1.325 -0.272,0.303 -0.544,0.601 -0.822,0.899 -0.066,0.067 -0.125,0.126 -0.185,0.193 -0.583,0.615 -1.178,1.217 -1.787,1.814 -0.722,0.701 -1.45,1.403 -2.185,2.098 -0.51,0.49 -1.02,0.973 -1.536,1.469 -2.052,1.98 -4.091,3.973 -6.143,5.959 -0.332,0.325 -0.663,0.649 -0.994,0.974 -2.383,2.304 -4.76,4.62 -7.137,6.924 -1.152,1.126 -2.304,2.238 -3.469,3.35 -0.179,0.167 -0.358,0.347 -0.539,0.529 l -1.627,-11.48 c 0.335,-0.869 0.672,-1.732 1.028,-2.595"
           style="fill:#f04f00;fill-opacity:1;fill-rule:nonzero;stroke:none"
           id="path12035" /><path
           d="m 218.397,377.193 -0.055,22.825 c -5.34,-2.409 -10.699,-4.767 -16.155,-6.904 -1.853,-0.727 -3.71,-1.443 -5.569,-2.152 l 12.317,-16.487 c 3.15,0.961 6.302,1.868 9.462,2.718"
           style="fill:#f64e00;fill-opacity:1;fill-rule:nonzero;stroke:none"
           id="path12037" /><path
           d="m 437.757,455.418 c 0.246,-0.265 0.489,-0.532 0.745,-0.787 0.039,-0.04 0.08,-0.079 0.119,-0.119 h -0.007 c 0.086,-0.08 0.179,-0.159 0.265,-0.252 0.225,-0.212 0.443,-0.424 0.676,-0.636 0.086,-0.079 0.177,-0.158 0.271,-0.238 0.238,-0.218 0.483,-0.437 0.729,-0.649 0.091,-0.066 0.172,-0.133 0.258,-0.205 0.257,-0.219 0.523,-0.43 0.781,-0.636 0.086,-0.066 0.166,-0.125 0.244,-0.192 0.271,-0.205 0.543,-0.417 0.822,-0.622 0.078,-0.06 0.172,-0.119 0.258,-0.186 0.271,-0.198 0.549,-0.396 0.82,-0.595 0.107,-0.067 0.213,-0.139 0.312,-0.212 l 0.794,-0.536 c 0.159,-0.113 0.332,-0.219 0.49,-0.324 0.212,-0.133 0.417,-0.265 0.623,-0.398 l 1.131,-0.715 c 0.563,-0.345 1.126,-0.675 1.689,-1.019 0.153,-0.086 0.297,-0.172 0.45,-0.265 0.509,-0.298 1.019,-0.603 1.536,-0.9 0.007,-0.007 0.012,-0.007 0.012,-0.014 0.391,-0.225 0.782,-0.45 1.166,-0.682 0.12,-0.073 0.239,-0.139 0.358,-0.205 0.145,-0.093 0.291,-0.178 0.45,-0.264 0.364,-0.226 0.735,-0.438 1.099,-0.663 0.178,-0.106 0.357,-0.211 0.529,-0.318 0.358,-0.212 0.716,-0.43 1.061,-0.648 0.171,-0.1 0.33,-0.2 0.489,-0.298 0.503,-0.312 1.007,-0.629 1.509,-0.96 0.325,-0.212 0.649,-0.431 0.973,-0.649 0.219,-0.337 0.457,-0.663 0.702,-0.98 1.285,-1.648 2.827,-3.071 4.389,-4.448 0.861,-0.756 1.722,-1.497 2.582,-2.239 0.888,-0.754 1.768,-1.509 2.648,-2.264 0.696,-0.768 1.391,-1.535 2.08,-2.31 0.628,-0.695 1.257,-1.384 1.879,-2.072 0.463,-0.53 0.928,-1.047 1.391,-1.569 0.45,-0.51 0.894,-1.013 1.338,-1.516 0.059,-0.08 0.125,-0.152 0.185,-0.226 0.397,-0.463 0.793,-0.919 1.184,-1.383 0.172,-0.199 0.338,-0.398 0.51,-0.596 2.185,-4.879 3.522,-10.069 4.316,-15.459 0.028,-0.198 0.054,-0.397 0.08,-0.596 0.02,-0.105 0.067,-0.443 0.067,-0.424 0.072,-0.595 0.145,-1.204 0.238,-1.8 0.023,-0.157 0.041,-0.308 0.062,-0.459 -0.008,0.049 -0.005,0.006 0.004,-0.084 -1.238,1.311 -2.654,2.41 -4.37,3.125 v 0.007 c -0.026,0.006 -0.04,0.019 -0.065,0.026 -0.133,0.053 -0.266,0.106 -0.411,0.152 h -0.013 c -0.861,0.291 -1.814,0.41 -2.675,0.107 -0.344,0.543 -0.688,1.086 -1.033,1.622 -1.085,1.701 -2.343,3.263 -4.131,4.276 -1.378,0.781 -3.561,1.477 -4.852,0.351 h -0.007 c -0.079,-0.073 -0.146,-0.146 -0.226,-0.232 -0.012,-0.019 -0.025,-0.033 -0.039,-0.046 -0.086,-0.106 -0.166,-0.225 -0.238,-0.344 -0.172,-0.305 -0.159,-0.643 -0.014,-0.914 -0.158,-0.318 -0.172,-0.696 0.047,-1.059 0.086,-0.133 0.172,-0.252 0.258,-0.378 -0.026,0.021 -0.066,0.04 -0.093,0.06 -3.502,2.092 -6.972,4.237 -10.341,6.541 -4.204,2.873 -8.315,5.899 -12.367,9.004 -0.139,0.106 -0.278,0.218 -0.424,0.331 -0.006,0 -0.046,0.04 -0.091,0.073 -0.081,0.059 -0.233,0.179 -0.266,0.205 -0.106,0.079 -0.211,0.158 -0.317,0.245 -0.531,0.41 -1.06,0.827 -1.589,1.237 -0.303,0.238 -0.599,0.476 -0.9,0.713 l 0.464,-84.541 128.157,33.162 c -0.875,2.382 -1.887,4.718 -3.092,6.946 -0.02,0.026 -0.034,0.066 -0.047,0.092 -0.901,1.656 -2.026,3.178 -2.94,4.82 -0.422,0.753 -0.594,1.084 -0.74,1.9 -0.004,0.043 -0.033,0.288 -0.033,0.277 -0.021,0.246 -0.028,0.491 -0.033,0.736 -0.007,0.543 0.012,1.086 -0.014,1.629 -0.014,0.264 -0.033,0.529 -0.066,0.781 -0.007,0.079 -0.02,0.158 -0.026,0.238 -0.027,0.186 -0.06,0.358 -0.094,0.53 -0.013,0.092 -0.039,0.171 -0.052,0.251 -0.04,0.179 -0.086,0.344 -0.133,0.516 -0.026,0.073 -0.039,0.147 -0.066,0.212 -0.011,0.036 -0.024,0.07 -0.036,0.106 l -121.552,87.66 z"
           style="fill:#fb9b00;fill-opacity:1;fill-rule:nonzero;stroke:none"
           id="path12039" /><path
           d="m 429.577,470.593 c 0.04,-0.153 0.087,-0.299 0.133,-0.445 0.06,-0.224 0.119,-0.45 0.186,-0.674 0.052,-0.172 0.106,-0.331 0.159,-0.503 0.065,-0.2 0.125,-0.411 0.198,-0.61 0.053,-0.172 0.105,-0.338 0.165,-0.503 0.073,-0.198 0.139,-0.404 0.219,-0.609 0.052,-0.159 0.119,-0.324 0.178,-0.49 0.08,-0.198 0.16,-0.41 0.239,-0.609 0.059,-0.159 0.126,-0.318 0.192,-0.47 0.086,-0.212 0.179,-0.423 0.265,-0.635 0.066,-0.14 0.132,-0.285 0.198,-0.431 0.1,-0.238 0.213,-0.464 0.318,-0.702 0.059,-0.119 0.113,-0.238 0.172,-0.357 0.172,-0.344 0.344,-0.689 0.524,-1.033 0.217,-0.411 0.443,-0.814 0.674,-1.218 0.074,-0.119 0.14,-0.239 0.218,-0.358 0.166,-0.277 0.345,-0.569 0.518,-0.847 0.039,-0.06 0.079,-0.125 0.119,-0.185 0.006,-0.014 0.013,-0.014 0.019,-0.026 1.028,-1.59 2.2,-3.087 3.486,-4.47 l -0.153,27.805 -9.181,-6.37 c 0.223,-2.112 0.605,-4.208 1.154,-6.26"
           style="fill:#ffa300;fill-opacity:1;fill-rule:nonzero;stroke:none"
           id="path12041" /><path
           d="m 361.685,413.193 c -2.377,0.233 -4.747,0.391 -7.117,0.471 -0.993,-0.272 -1.979,-0.53 -2.979,-0.762 -1.589,-0.371 -3.178,-0.788 -4.747,-1.284 1.894,1.754 3.661,3.648 5.263,5.687 0.636,0.821 1.258,1.648 1.854,2.489 0.517,-0.311 1.033,-0.629 1.549,-0.94 1.444,-0.854 2.893,-1.708 4.357,-2.556 2.132,-1.231 4.276,-2.462 6.448,-3.634 -1.536,0.205 -3.079,0.377 -4.628,0.529 m 76.222,14.715 c -0.721,0.571 -1.444,1.14 -2.159,1.71 -2.006,1.603 -3.999,3.205 -5.978,4.826 -3.965,3.239 -7.912,6.509 -11.872,9.753 -5.595,4.603 -11.229,9.17 -16.995,13.563 l -62.155,-43.124 99.623,-71.269 z"
           style="fill:#ffa300;fill-opacity:1;fill-rule:nonzero;stroke:none"
           id="path12043" /><path
           d="m 249.648,383.818 c 8.394,1.325 16.855,2.193 25.336,2.987 0.186,0.017 0.37,0.034 0.554,0.051 l 63.21,27.78 -35.886,32.012 c -5.607,-3.771 -11.288,-7.429 -17.06,-10.952 -12.473,-7.613 -25.257,-14.664 -38.312,-21.185 -1.338,-0.94 -2.721,-1.827 -4.145,-2.655 -4.515,-2.641 -9.361,-4.773 -14.128,-6.918 -3.631,-1.628 -7.248,-3.286 -10.875,-4.92 l 0.055,-22.825 c 10.24,2.759 20.567,4.951 31.251,6.625"
           style="fill:#fd7700;fill-opacity:1;fill-rule:nonzero;stroke:none"
           id="path12045" /><path
           d="m 437.604,483.223 121.552,-87.66 c -0.055,0.173 -0.109,0.346 -0.176,0.516 -0.006,0.027 -0.013,0.054 -0.027,0.073 -0.092,0.245 -0.198,0.477 -0.305,0.709 -0.012,0.013 -0.012,0.027 -0.019,0.034 -0.106,0.217 -0.219,0.422 -0.338,0.627 -0.02,0.041 -0.039,0.081 -0.066,0.121 -0.106,0.184 -0.218,0.363 -0.337,0.543 -0.021,0.032 -0.046,0.065 -0.067,0.105 -0.138,0.198 -0.27,0.391 -0.417,0.583 -0.013,0.006 -0.013,0.013 -0.013,0.013 -0.821,1.086 -1.821,2.065 -2.912,2.972 -2.663,2.218 -5.35,4.383 -7.846,6.799 -1.35,1.312 -2.654,2.661 -3.926,4.052 -0.053,0.205 -0.105,0.411 -0.158,0.616 -0.119,0.417 -0.233,0.841 -0.338,1.265 0,0.006 0,0.013 -0.007,0.013 -0.106,0.417 -0.198,0.834 -0.298,1.25 -0.007,0.021 -0.007,0.047 -0.019,0.06 -0.087,0.404 -0.173,0.809 -0.266,1.205 -0.006,0.054 -0.014,0.1 -0.026,0.147 -0.079,0.377 -0.152,0.754 -0.226,1.131 -0.013,0.086 -0.032,0.179 -0.053,0.258 -0.058,0.345 -0.119,0.689 -0.177,1.027 -0.021,0.138 -0.047,0.284 -0.067,0.423 -0.047,0.291 -0.099,0.583 -0.139,0.874 -0.033,0.218 -0.06,0.444 -0.093,0.662 -0.027,0.218 -0.059,0.43 -0.086,0.656 -0.059,0.436 -0.106,0.88 -0.152,1.324 0.093,0.615 0.192,1.232 0.298,1.84 0.125,0.741 0.264,1.477 0.403,2.212 0.041,0.198 0.08,0.384 0.12,0.582 0.126,0.662 0.259,1.324 0.397,1.986 0.014,0.072 0.026,0.153 0.046,0.225 0.153,0.722 0.305,1.436 0.47,2.152 0.041,0.205 0.094,0.417 0.133,0.629 0.138,0.582 0.277,1.178 0.417,1.768 0.033,0.138 0.066,0.284 0.098,0.429 0.173,0.696 0.338,1.391 0.518,2.079 0.053,0.226 0.105,0.451 0.172,0.675 0.092,0.378 0.185,0.749 0.285,1.126 0.186,0.715 0.377,1.43 0.568,2.146 0.074,0.264 0.139,0.522 0.213,0.78 0.258,0.947 0.523,1.894 0.787,2.834 1.894,3.562 3.767,7.137 5.455,10.805 1.053,2.29 2.066,4.621 2.901,6.998 0.562,1.594 0.953,3.25 0.701,4.872 0.795,0.285 1.51,0.86 2,1.595 0.953,1.43 1.045,3.35 1.111,5.019 0.047,1.046 0.04,2.092 0.014,3.138 0.86,-3.688 1.92,-7.335 3.065,-10.937 0.246,-0.781 0.497,-1.556 0.747,-2.331 0.075,-0.224 0.147,-0.443 0.219,-0.662 0.073,-0.231 0.153,-0.463 0.233,-0.688 0.08,-0.265 0.166,-0.523 0.252,-0.782 0.026,-0.086 0.052,-0.165 0.079,-0.251 0.012,-0.047 0.033,-0.092 0.052,-0.146 0.04,-0.111 0.074,-0.225 0.107,-0.33 0.025,-0.067 0.046,-0.133 0.065,-0.193 0.2,-0.602 0.405,-1.205 0.61,-1.807 0.052,-0.172 0.106,-0.338 0.165,-0.503 0.027,-0.079 0.052,-0.146 0.073,-0.226 0.106,-0.297 0.212,-0.595 0.312,-0.899 0.132,-0.385 0.263,-0.781 0.403,-1.173 0.087,-0.258 0.179,-0.516 0.264,-0.774 0.504,-1.463 1.02,-2.919 1.53,-4.376 l 0.278,-0.794 c 0.616,-1.742 1.237,-3.49 1.866,-5.231 0.127,-0.35 0.252,-0.708 0.379,-1.059 0.555,-1.542 1.112,-3.092 1.674,-4.634 0.702,-1.94 1.404,-3.88 2.1,-5.819 1.105,-3.059 2.211,-6.118 3.322,-9.176 0.544,-1.496 1.086,-3.006 1.637,-4.502 0.447,-1.243 0.912,-2.484 1.519,-3.65 l -6.181,120.681 z"
           style="fill:#f56500;fill-opacity:1;fill-rule:nonzero;stroke:none"
           id="path12047" /><path
           d="m 592.836,475.472 c 0.186,0.324 0.371,0.655 0.563,0.98 0.074,0.132 0.153,0.271 0.232,0.41 0.464,-0.629 0.94,-1.245 1.443,-1.841 -0.595,-1.31 -1.258,-2.595 -1.946,-3.852 -0.119,1.43 -0.218,2.859 -0.292,4.303 m -0.106,2.641 c 0.226,-0.338 0.464,-0.669 0.703,-0.993 -0.12,-0.219 -0.239,-0.443 -0.358,-0.655 -0.086,-0.159 -0.172,-0.318 -0.264,-0.477 -0.028,0.708 -0.053,1.417 -0.081,2.125 m -0.992,-4.575 c 0.066,0.119 0.132,0.233 0.205,0.352 0.014,-0.265 0.034,-0.524 0.059,-0.788 -0.092,0.145 -0.172,0.292 -0.264,0.436 m -1.463,2.443 c 0.086,1.914 0.205,3.821 0.364,5.72 0.331,-0.681 0.702,-1.35 1.086,-2.006 0.026,-1.773 0.086,-3.548 0.185,-5.322 -0.106,-0.192 -0.219,-0.384 -0.331,-0.576 -0.431,0.728 -0.868,1.456 -1.304,2.184 m -0.271,25.271 c -1.537,-4.82 -3.297,-9.561 -4.9,-14.366 0.318,2.502 0.662,4.991 1,7.48 0.085,0.319 0.166,0.623 0.251,0.941 0.59,1.377 1.146,2.767 1.649,4.197 1.112,3.111 2,6.303 2.682,9.54 -0.193,-2.603 -0.438,-5.204 -0.682,-7.792 m -0.596,-23.808 c 0,0.007 -0.008,0.014 -0.013,0.014 0.013,0.88 0.026,1.754 0.052,2.635 0.039,1.303 0.1,2.608 0.172,3.912 0.08,-0.205 0.158,-0.41 0.245,-0.615 -0.192,-1.98 -0.344,-3.959 -0.456,-5.946 m -0.9,6.773 c -0.285,-1.225 -0.564,-2.443 -0.835,-3.674 -0.132,0.258 -0.278,0.517 -0.411,0.781 -0.132,0.239 -0.251,0.49 -0.377,0.736 -0.198,0.389 -0.397,0.78 -0.589,1.17 -0.126,0.259 -0.251,0.517 -0.37,0.782 -0.252,0.516 -0.49,1.04 -0.729,1.562 1.067,2.489 2.092,5.005 3.059,7.554 -0.067,-0.787 -0.094,-1.582 -0.067,-2.376 0.053,-1.258 0.225,-2.51 0.51,-3.734 -0.072,-0.934 -0.133,-1.868 -0.191,-2.801 m -0.213,-4.826 c -0.006,0.013 -0.013,0.033 -0.026,0.053 -0.013,0.027 -0.027,0.046 -0.04,0.067 0.027,0.092 0.053,0.184 0.08,0.27 0,-0.126 -0.007,-0.258 -0.014,-0.39 m -2.999,15.611 c -0.02,-0.159 -0.046,-0.317 -0.06,-0.477 -0.052,-0.106 -0.091,-0.212 -0.138,-0.318 0.066,0.266 0.132,0.53 0.198,0.795 m -0.96,2.635 c -0.145,-1.808 -0.317,-3.602 -0.576,-5.403 -0.112,-0.503 -0.218,-1.005 -0.33,-1.515 -0.107,0.562 -0.213,1.118 -0.312,1.675 0.477,3.468 0.934,6.938 1.397,10.4 0.364,2.721 0.715,5.449 1.066,8.176 -0.054,-0.781 -0.106,-1.549 -0.173,-2.33 -0.291,-3.667 -0.773,-7.328 -1.072,-11.003 m -0.186,-7.813 c -0.052,-0.224 -0.105,-0.436 -0.158,-0.655 0.119,0.643 0.252,1.291 0.384,1.927 0.066,0.119 0.126,0.238 0.185,0.357 -0.132,-0.543 -0.271,-1.086 -0.411,-1.629 m 0.153,-2.25 c -0.026,0.06 -0.053,0.119 -0.073,0.172 0.053,0.186 0.113,0.377 0.172,0.569 -0.039,-0.245 -0.066,-0.49 -0.099,-0.741 m -2.635,14.631 c -0.126,1.178 -0.244,2.37 -0.357,3.548 -0.114,1.159 -0.219,2.317 -0.332,3.47 -0.006,0.04 -0.006,0.079 -0.012,0.119 0.47,1.231 0.96,2.463 1.509,3.668 0.006,0.072 0.02,0.138 0.034,0.212 0.012,0.092 0.072,0.158 0.151,0.198 0.338,0.715 0.695,1.43 1.093,2.125 0.158,0.285 0.629,0.093 0.529,-0.226 -0.357,-1.104 -0.681,-2.223 -1.006,-3.342 0.251,-2.582 0.106,-5.177 -0.093,-7.773 -0.198,-2.555 -0.49,-5.091 -0.774,-7.627 -0.291,1.881 -0.543,3.761 -0.742,5.628 m 15.387,-19.199 c 0.316,0.589 0.654,1.179 0.986,1.767 0.072,-0.006 0.145,0.02 0.185,0.107 0.099,0.184 0.198,0.37 0.292,0.556 -0.729,-3.516 -1.854,-6.918 -3.364,-10.243 -0.106,0.173 -0.205,0.338 -0.304,0.504 -0.325,0.563 -0.623,1.139 -0.901,1.721 1.046,1.853 2.092,3.714 3.106,5.588 m 8.347,7.203 c 0.011,0.083 0.022,0.172 0.032,0.261 l -0.68,0.964 c -0.402,-4.083 -1.036,-8.15 -2.252,-12.07 -0.065,-0.224 -0.139,-0.45 -0.211,-0.668 -1.179,-3.211 -2.768,-6.27 -4.595,-9.209 -0.649,-1.033 -1.311,-2.052 -1.986,-3.058 -0.536,1.025 -1.072,2.051 -1.636,3.064 -0.218,0.404 -0.456,0.815 -0.681,1.212 0.681,1.324 1.337,2.661 1.947,3.999 0.132,-0.145 0.251,-0.292 0.383,-0.437 -0.119,0.178 -0.225,0.357 -0.33,0.536 0.092,0.206 0.178,0.404 0.271,0.602 1.582,3.569 2.933,7.389 3.535,11.288 0.655,1.172 1.211,2.416 1.761,3.609 0.284,0.615 0.55,1.238 0.814,1.86 0.265,0.575 0.517,1.158 0.769,1.734 -0.292,-3.376 -0.729,-6.746 -1.245,-10.083 -0.146,-0.622 -0.318,-1.238 -0.517,-1.846 -0.536,-1.675 -1.244,-3.284 -2.052,-4.847 -0.013,-0.026 -0.013,-0.046 -0.006,-0.072 -0.086,-0.147 -0.179,-0.299 -0.266,-0.451 -0.033,-0.046 0.04,-0.099 0.08,-0.059 1.179,1.225 1.94,2.906 2.51,4.495 0.165,0.477 0.316,0.966 0.449,1.456 0.033,0.027 0.053,0.067 0.067,0.119 0.026,0.16 0.059,0.312 0.092,0.464 0.04,0.192 0.093,0.384 0.132,0.575 0.199,0.842 0.464,1.742 0.444,2.616 0.413,2.426 0.755,4.871 1.007,7.323 l -0.985,1.399 c -0.726,-1.806 -1.48,-3.598 -2.267,-5.372 0.319,2.533 0.547,5.077 0.68,7.626 l -1.368,1.942 c 0.034,-1.847 0.026,-3.693 -0.027,-5.536 -0.052,-1.689 -0.131,-3.383 -0.244,-5.072 -0.006,-0.046 0.006,-0.092 0.02,-0.132 -0.04,-0.285 -0.086,-0.569 -0.133,-0.854 -0.84,-1.523 -1.562,-3.138 -2.363,-4.648 -0.92,-1.727 -1.834,-3.456 -2.768,-5.169 -1.151,2.508 -1.88,5.222 -2.217,7.976 -0.107,0.444 -0.212,0.895 -0.292,1.338 -0.489,2.608 -0.569,5.27 -0.225,7.892 0.345,2.628 1.007,5.29 2.291,7.62 0.504,0.902 1.098,1.753 1.752,2.555 l -2.86,4.057 c -0.236,-0.97 -0.482,-1.937 -0.746,-2.898 0.092,1.203 0.174,2.407 0.244,3.611 l -1.457,2.068 c -0.472,-2.89 -1.11,-5.754 -1.912,-8.572 0.02,0.072 0.039,0.152 0.053,0.231 0.649,2.822 1.233,5.657 1.743,8.506 l -0.832,1.182 c -0.057,-0.357 -0.115,-0.713 -0.176,-1.068 0.054,0.37 0.097,0.741 0.146,1.111 l -0.609,0.865 c -0.226,-1.739 -0.499,-3.471 -0.828,-5.194 0.177,1.919 0.32,3.841 0.427,5.763 l -15.806,22.436 6.181,-120.681 c 0.039,-0.076 0.074,-0.155 0.115,-0.23 0.013,-0.132 0.027,-0.272 0.039,-0.403 v -0.014 c 0,-0.093 0.014,-0.186 0.028,-0.277 0.012,-0.18 0.033,-0.359 0.053,-0.538 0.013,-0.158 0.039,-0.317 0.052,-0.469 0.027,-0.179 0.047,-0.358 0.073,-0.536 0.019,-0.153 0.046,-0.305 0.073,-0.451 0.026,-0.185 0.053,-0.371 0.093,-0.543 0.026,-0.145 0.052,-0.291 0.08,-0.436 0.039,-0.186 0.078,-0.371 0.119,-0.557 0.025,-0.126 0.058,-0.252 0.092,-0.37 0.04,-0.212 0.092,-0.411 0.146,-0.609 0,-0.014 0.006,-0.027 0.013,-0.033 0.138,-0.531 0.311,-1.053 0.503,-1.582 0.026,-0.086 0.052,-0.179 0.092,-0.266 0.074,-0.198 0.153,-0.384 0.232,-0.568 0.047,-0.121 0.086,-0.226 0.139,-0.345 v 0.007 c 0.027,-0.047 0.041,-0.1 0.066,-0.153 1.152,-2.555 2.86,-4.793 4.383,-7.137 0.008,0 0.013,-0.013 0.013,-0.013 0.272,-0.424 0.543,-0.834 0.795,-1.265 0.887,-1.476 1.655,-3.011 2.37,-4.574 0.185,-0.404 0.357,-0.808 0.537,-1.219 0.072,-0.152 0.138,-0.31 0.205,-0.463 0.012,-0.053 0.039,-0.119 0.079,-0.199 0.331,-0.82 0.663,-1.641 0.993,-2.469 0.851,-2.163 1.692,-4.332 2.533,-6.502 l 30.396,10.604 c -0.925,3.741 -1.984,7.469 -3.454,11.039 -1.298,3.139 -2.901,6.131 -4.383,9.176 -0.205,1.007 -0.418,2.019 -0.643,3.032 -0.655,2.94 -1.403,5.853 -2.244,8.745 -1.748,5.979 -3.945,11.798 -6.402,17.525 -2.444,5.68 -4.959,11.347 -7.633,16.928 -0.742,1.543 -1.51,3.078 -2.291,4.602 0.807,1.198 1.601,2.403 2.357,3.635 1.774,2.892 3.403,5.998 4.502,9.255 0.158,0.429 0.304,0.867 0.449,1.303 0.028,0.014 0.047,0.028 0.053,0.067 0.094,0.331 0.186,0.655 0.266,0.986 0.305,1 0.569,2.02 0.807,3.046 0.49,1.896 0.958,3.804 1.397,5.72 l -0.3,0.425 c -0.017,-0.077 -0.033,-0.155 -0.051,-0.233"
           style="fill:#e07000;fill-opacity:1;fill-rule:nonzero;stroke:none"
           id="path12049" /><path
           d="m 400.903,457.76 c -2.501,1.906 -5.025,3.783 -7.586,5.61 -4.157,2.966 -8.401,5.806 -12.764,8.46 -2.151,1.312 -4.323,2.636 -6.561,3.794 -1.92,0.993 -3.945,2.059 -5.997,2.834 5.309,1.211 10.499,2.933 15.597,4.846 4.078,1.529 8.11,3.191 12.142,4.852 4.171,1.722 8.329,3.47 12.393,5.443 1.297,0.631 2.569,1.316 3.846,1.99 l -40.528,19.553 c -0.671,-0.391 -1.305,-0.871 -1.822,-1.411 -0.251,-0.258 -0.503,-0.537 -0.728,-0.828 -0.582,0.53 -1.218,0.974 -1.914,1.319 0,0 0,0.006 0.007,0.006 -0.119,0.052 -0.238,0.112 -0.364,0.159 0.249,0.933 0.398,1.913 0.406,2.884 l -16.787,8.1 -4.979,-47.963 c 0.338,-0.06 0.677,-0.124 1.015,-0.175 0.193,-0.027 0.385,-0.053 0.576,-0.08 -0.577,-0.371 -1.155,-0.739 -1.733,-1.107 l -6.374,-61.41 z"
           style="fill:#ff8800;fill-opacity:1;fill-rule:nonzero;stroke:none"
           id="path12051" /><path
           d="m 428.188,481.529 c -0.012,-1.56 0.07,-3.122 0.235,-4.676 l 9.181,6.37 -8.938,4.312 c -0.299,-1.982 -0.467,-3.988 -0.478,-6.006"
           style="fill:#ff8800;fill-opacity:1;fill-rule:nonzero;stroke:none"
           id="path12053" /><path
           d="m 327.803,524.851 c -0.452,-4.586 -0.543,-9.162 -0.339,-13.775 0.146,-3.416 0.557,-6.805 1.351,-10.116 v -0.119 c 0.093,-1.973 0.371,-3.952 0.821,-5.872 0.887,-3.767 2.628,-7.329 4.872,-10.467 1.259,-1.768 2.636,-3.442 4.409,-4.727 1.689,-1.218 3.761,-1.887 5.793,-2.271 0.185,-0.034 0.37,-0.063 0.554,-0.096 l 4.979,47.963 z"
           style="fill:#fd7400;fill-opacity:1;fill-rule:nonzero;stroke:none"
           id="path12055" /><path
           d="m 345.122,476.046 c -1.177,-0.751 -2.353,-1.501 -3.53,-2.256 -3.443,-2.205 -6.859,-4.462 -10.301,-6.667 -0.748,-0.576 -1.496,-1.144 -2.251,-1.714 -8.576,-6.506 -17.283,-12.778 -26.178,-18.761 l 35.886,-32.012 z"
           style="fill:#fd7400;fill-opacity:1;fill-rule:nonzero;stroke:none"
           id="path12057" /><path
           d="m 620.496,533.784 c 0.133,-2.635 0,-5.283 -0.264,-7.918 0,-0.026 0.039,-0.026 0.053,0 0.569,2.649 0.742,5.363 0.596,8.077 -0.018,0.339 -0.039,0.686 -0.063,1.034 l -0.399,0.018 c 0.03,-0.403 0.057,-0.807 0.077,-1.211"
           style="fill:#d54200;fill-opacity:1;fill-rule:nonzero;stroke:none"
           id="path12059" /><path
           d="m 606.601,507.945 c 0.02,1.357 0.026,2.714 0.006,4.072 0.635,2.674 0.596,5.502 0.503,8.242 -0.012,0.695 -0.052,1.384 -0.086,2.079 0.497,-2.701 0.835,-5.429 0.974,-8.177 -0.391,-2.092 -0.861,-4.157 -1.397,-6.216 m -0.086,7.157 c 0.106,4.581 -0.239,9.175 -0.98,13.704 0.112,-0.41 0.225,-0.808 0.324,-1.218 0.086,-0.318 0.166,-0.643 0.245,-0.967 0.16,-1.576 0.292,-3.151 0.384,-4.74 0.146,-2.628 0.358,-5.39 0.073,-8.064 -0.014,0.43 -0.026,0.861 -0.046,1.285 m -2.027,-8.607 c -0.119,-1.622 -0.291,-3.244 -0.489,-4.859 v -0.053 c -0.033,-0.173 -0.066,-0.352 -0.106,-0.53 -0.067,-0.305 -0.132,-0.622 -0.199,-0.927 0.086,2.608 0.053,5.217 -0.119,7.812 -0.245,3.562 -0.755,7.097 -1.602,10.56 0.642,2.985 1.047,6.031 1.192,9.103 0.026,0.602 0.04,1.205 0.053,1.807 0.555,-4.204 0.966,-8.428 1.257,-12.665 0.093,-1.363 0.166,-2.727 0.226,-4.104 0,-0.053 0.026,-0.093 0.066,-0.119 -0.027,-2.013 -0.12,-4.026 -0.279,-6.025 m 4.535,28.322 c 0.233,-2.436 0.325,-4.885 0.299,-7.336 -0.252,0.835 -0.53,1.676 -0.808,2.51 -0.375,1.886 -0.801,3.759 -1.267,5.623 l -1.229,0.058 c 0.556,-1.642 1.103,-3.288 1.623,-4.94 0.317,-1 0.628,-2.005 0.939,-3.012 0.225,-0.722 0.41,-1.47 0.689,-2.171 -0.08,-2.125 -0.239,-4.244 -0.49,-6.343 -0.133,-1.046 -0.278,-2.085 -0.443,-3.118 -0.272,3.35 -0.821,6.667 -1.576,9.937 -0.133,1.47 -0.299,2.933 -0.49,4.389 -0.238,1.771 -0.526,3.533 -0.855,5.286 l -0.685,0.032 c 0.354,-1.794 0.663,-3.596 0.917,-5.404 -0.377,1.318 -0.781,2.636 -1.211,3.946 -0.12,0.498 -0.247,0.995 -0.375,1.491 l -31.582,1.484 15.806,-22.436 c 0.242,4.399 0.276,8.805 -0.056,13.205 -0.006,0.152 -0.02,0.298 -0.034,0.444 0.246,0.927 0.471,1.853 0.69,2.78 0.112,0.245 0.219,0.489 0.324,0.741 0.265,-3.992 0.291,-7.997 0.033,-11.982 -0.121,-1.927 -0.309,-3.846 -0.556,-5.757 l 0.609,-0.865 c 0.842,6.349 1.027,12.792 0.471,19.161 -0.014,0.198 -0.041,0.41 -0.053,0.615 0.105,0.265 0.211,0.536 0.316,0.801 0.047,-0.529 0.1,-1.052 0.173,-1.575 -0.013,-0.318 -0.026,-0.65 -0.04,-0.967 -0.006,-0.145 0.119,-0.265 0.252,-0.291 0.013,-0.04 0.02,-0.08 0.026,-0.126 0.16,-1.132 0.279,-2.27 0.377,-3.403 -0.006,-0.258 -0.019,-0.523 -0.032,-0.787 -0.203,-4.525 -0.731,-9.015 -1.46,-13.471 l 0.832,-1.182 c 0.26,1.449 0.506,2.901 0.72,4.358 -0.153,-1.514 -0.357,-3.022 -0.604,-4.523 l 1.457,-2.068 c 0.077,1.308 0.139,2.617 0.18,3.93 0.039,1.198 0.067,2.402 0.067,3.607 0.45,4.502 0.462,9.004 0.079,13.467 0.012,1.277 0,2.554 -0.054,3.839 0.352,-1.192 0.662,-2.39 0.928,-3.601 -0.014,-0.033 -0.027,-0.08 -0.014,-0.126 0.689,-5.866 0.649,-11.751 0.252,-17.637 -0.281,-1.401 -0.596,-2.799 -0.936,-4.192 l 2.86,-4.057 c 0.205,0.252 0.414,0.499 0.631,0.742 0.484,0.543 1.019,1.039 1.53,1.569 0.384,0.384 0.727,0.834 1.231,1.072 0.1,0.053 0.218,0.014 0.258,-0.093 0,0.013 0,0.02 0.014,0.027 v 0.026 c 0.303,-3.098 0.483,-6.206 0.542,-9.313 l 1.368,-1.942 c 0.205,3.97 0.174,7.949 -0.149,11.917 -0.093,1.033 -0.186,2.06 -0.298,3.085 0.469,1.371 0.893,2.755 1.251,4.158 0.384,-1.761 0.681,-3.548 0.9,-5.336 0.616,-4.965 0.655,-9.951 0.331,-14.922 -0.013,-0.067 -0.039,-0.126 -0.053,-0.186 -0.128,-0.325 -0.265,-0.645 -0.395,-0.97 l 0.985,-1.399 c 0.088,0.852 0.166,1.707 0.231,2.561 0.715,1.754 1.378,3.523 1.986,5.303 -0.1,-2.079 -0.231,-4.171 -0.384,-6.25 -0.09,-1.254 -0.192,-2.511 -0.317,-3.766 l 0.68,-0.964 c 0.003,0.023 0.005,0.046 0.008,0.07 0.596,4.681 0.908,9.421 1.073,14.148 0.569,1.886 1.098,3.78 1.555,5.7 -0.047,-4.33 -0.523,-8.647 -1.238,-12.916 -0.396,-2.358 -0.869,-4.697 -1.379,-7.03 l 0.3,-0.425 c 1.571,6.872 2.723,13.857 2.774,20.887 0.006,0.477 0,0.953 -0.006,1.437 0.192,0.888 0.377,1.774 0.536,2.668 0.357,1.88 0.635,3.787 0.853,5.693 0.166,-2.847 0.127,-5.706 0.219,-8.54 0.007,-0.053 0.08,-0.053 0.08,0 0.191,2.125 0.205,4.237 0.152,6.369 -0.039,1.523 -0.08,3.059 -0.218,4.581 0.191,2.437 0.271,4.886 0.224,7.323 0.662,-2.768 1.186,-5.575 1.55,-8.409 0.186,-1.476 0.345,-2.959 0.517,-4.435 -0.014,-0.119 -0.014,-0.238 -0.028,-0.345 -0.092,-1.204 -0.211,-2.396 -0.363,-3.588 -0.033,-0.304 -0.073,-0.622 -0.119,-0.927 -0.266,-1.205 -0.563,-2.41 -0.855,-3.608 -1.145,-4.707 -2.45,-9.354 -3.707,-14.028 -0.013,-0.04 0.04,-0.053 0.053,-0.014 1.747,4.728 3.132,9.62 4.316,14.512 0.556,2.304 1.132,4.615 1.423,6.965 0.14,1.138 0.213,2.277 0.153,3.422 -0.039,0.775 -0.092,1.663 -0.358,2.43 -0.345,4.418 -1.248,8.822 -2.392,13.049 l -1.768,0.083 c 0.084,-0.239 0.162,-0.48 0.234,-0.725"
           style="fill:#d54200;fill-opacity:1;fill-rule:nonzero;stroke:none"
           id="path12061" /><path
           d="m 618.325,510.878 c 0.027,-0.318 0.04,-0.649 0.06,-0.967 -0.311,-1.019 -0.682,-2.019 -1.079,-3.006 -0.291,-0.702 -0.589,-1.403 -0.888,-2.105 0.067,0.894 0.094,1.794 0.1,2.695 0.007,0.112 0.007,0.218 0.007,0.337 0.026,0.04 0.053,0.106 0.053,0.173 0.119,2.463 0.059,4.925 -0.113,7.401 0.365,2.185 0.709,4.369 0.986,6.568 0.398,-3.695 0.676,-7.389 0.874,-11.096 m -0.118,19.166 c 0.654,-5.257 0.847,-10.547 0.834,-15.85 0,-0.496 -0.008,-1 -0.014,-1.503 -0.04,-0.264 -0.08,-0.529 -0.132,-0.8 0,0.555 -0.027,1.112 -0.08,1.661 -0.145,4.039 -0.45,8.084 -0.94,12.102 0.146,1.457 0.258,2.926 0.332,4.39 M 615.24,511.91 c -0.052,-0.39 -0.113,-0.774 -0.172,-1.158 -0.006,-0.073 0.006,-0.139 0.039,-0.192 -0.033,-0.251 -0.066,-0.503 -0.105,-0.755 -0.438,6.204 -0.939,12.407 -1.708,18.577 0.953,-4.78 1.602,-9.607 2.079,-14.459 -0.047,-0.675 -0.08,-1.351 -0.133,-2.013 m 1.781,13.764 c -0.218,-2.39 -0.509,-4.773 -0.833,-7.156 -0.114,0.986 -0.233,1.972 -0.372,2.953 -0.199,3.031 -0.457,6.05 -0.828,9.069 -0.193,1.588 -0.422,3.169 -0.682,4.742 l -0.564,0.028 c 0.436,-2.579 0.783,-5.173 1.062,-7.776 -0.107,0.596 -0.226,1.179 -0.338,1.762 -0.086,0.423 -0.173,0.841 -0.259,1.258 -0.196,1.591 -0.422,3.179 -0.665,4.764 l -2.195,0.104 c 1.172,-6.992 1.955,-14.059 2.768,-21.114 0.092,-0.809 0.186,-1.622 0.278,-2.437 -0.12,-0.597 -0.086,-1.231 -0.12,-1.841 -0.052,-0.847 -0.132,-1.694 -0.264,-2.542 -0.219,-1.443 -0.55,-2.86 -0.98,-4.251 -0.92,-2.992 -2.238,-5.839 -3.601,-8.652 -0.02,-0.04 0.039,-0.073 0.066,-0.033 1.549,2.741 2.879,5.594 3.84,8.599 0.477,1.477 0.86,2.987 1.119,4.516 0.092,0.562 0.205,1.198 0.283,1.833 0.08,-0.039 0.173,-0.025 0.227,0.027 -0.259,-1.788 -0.596,-3.555 -1.02,-5.303 -1,-4.17 -2.529,-8.083 -4.151,-12.042 -0.021,-0.053 0.072,-0.093 0.099,-0.04 2.099,3.734 3.502,7.964 4.508,12.109 0.491,2.019 0.88,4.058 1.16,6.117 0,0.033 0.005,0.066 0.012,0.1 0.027,0.039 0.046,0.079 0.053,0.132 0.014,0.079 0.033,0.171 0.046,0.252 0.1,-0.948 0.199,-1.894 0.312,-2.847 0,-0.021 0.006,-0.04 0.013,-0.06 v -0.45 c 0,-1.397 -0.059,-2.787 -0.212,-4.165 -0.847,-1.933 -1.715,-3.847 -2.542,-5.772 -0.04,-0.1 0.093,-0.186 0.146,-0.086 0.728,1.496 1.482,2.985 2.197,4.488 v -0.02 c -0.072,-0.318 -0.158,-0.628 -0.251,-0.94 -0.927,-3.099 -2.343,-6.038 -3.323,-9.109 -0.701,-1.344 -1.43,-2.662 -2.026,-4.039 -0.027,-0.046 0.034,-0.08 0.059,-0.039 0.623,0.853 1.186,1.773 1.715,2.72 0.019,0.007 0.04,0.02 0.053,0.046 0.052,0.107 0.093,0.212 0.146,0.318 0.556,1.02 1.059,2.066 1.542,3.092 0.96,2.052 1.755,4.191 2.271,6.408 0.225,1 0.397,2.006 0.517,3.026 0.516,1.112 1.012,2.224 1.483,3.35 0.178,0.444 0.357,0.887 0.515,1.331 -0.218,-2.205 -0.681,-4.35 -1.164,-6.521 -0.02,-0.08 0.099,-0.113 0.132,-0.033 0.841,2.197 1.27,4.574 1.483,6.918 0.034,0.39 0.067,0.788 0.092,1.191 0.193,0.61 0.365,1.232 0.504,1.867 0.298,1.325 0.582,2.847 0.33,4.218 0.041,0.827 0.08,1.661 0.119,2.483 0.083,5.641 -0.422,11.295 -1.381,16.863 l -2.931,0.138 c 0.633,-3.164 1.142,-6.35 1.552,-9.554"
           style="fill:#d54200;fill-opacity:1;fill-rule:nonzero;stroke:none"
           id="path12063" /><path
           d="m 337.932,599.979 c -0.16,-1.058 -0.297,-2.117 -0.444,-3.156 -0.437,-3.058 -0.781,-6.13 -1.027,-9.215 -0.059,-0.702 -0.099,-1.41 -0.145,-2.119 -0.404,-3.104 -0.762,-6.216 -1.092,-9.334 -0.08,-0.755 -0.146,-1.509 -0.226,-2.264 -0.741,-4.502 -1.218,-9.071 -1.324,-13.619 -0.007,-0.033 -0.007,-0.073 -0.007,-0.098 -2.151,-1.338 -4.11,-2.993 -5.646,-5.006 -0.875,-1.151 -1.563,-2.39 -1.98,-3.78 -0.06,-0.192 -0.113,-0.391 -0.159,-0.596 -0.563,-1.039 -0.827,-2.244 -0.92,-3.409 -0.186,-2.549 1.151,-4.688 2.476,-6.72 0.304,-0.483 0.609,-0.967 0.854,-1.483 0.152,-0.318 0.066,-0.093 0.166,-0.43 0.092,-0.305 0.185,-0.603 0.258,-0.914 0.059,-0.265 0.112,-0.536 0.158,-0.808 0.007,-0.033 0.007,-0.059 0.014,-0.079 0.02,-0.159 0.033,-0.318 0.046,-0.47 0.04,-0.603 0.046,-1.205 0.026,-1.807 -0.02,-0.564 -0.065,-1.126 -0.119,-1.682 -0.032,-0.331 -0.066,-0.662 -0.112,-0.993 0.006,0.013 -0.02,-0.159 -0.033,-0.238 -0.014,-0.093 -0.04,-0.312 -0.047,-0.345 -0.205,-1.417 -0.41,-2.834 -0.589,-4.25 -0.097,-0.771 -0.181,-1.543 -0.257,-2.313 l 22.44,0.52 z"
           style="fill:#fa6200;fill-opacity:1;fill-rule:nonzero;stroke:none"
           id="path12065" /><path
           d="m 366.551,520.187 c -0.801,2.158 -2.31,3.845 -4.502,4.633 -0.158,0.053 -0.311,0.1 -0.47,0.146 -0.152,0.047 -0.311,0.093 -0.47,0.145 -0.119,0.04 -0.192,0.067 -0.218,0.074 -0.034,0.019 -0.06,0.033 -0.067,0.033 -0.032,0.026 -0.046,0.04 -0.059,0.053 -0.034,0.052 -0.066,0.119 -0.099,0.171 -0.02,0.053 -0.04,0.08 -0.053,0.086 -0.007,0.034 -0.02,0.074 -0.033,0.119 -0.08,0.239 -0.153,0.471 -0.212,0.709 -0.159,0.582 -0.279,1.165 -0.411,1.754 -0.496,2.337 -0.854,4.702 -1.059,7.084 -0.029,0.332 -0.05,0.665 -0.074,0.997 l -8.581,-10.82 16.787,-8.1 c 0.009,0.999 -0.133,1.99 -0.479,2.916"
           style="fill:#ff7200;fill-opacity:1;fill-rule:nonzero;stroke:none"
           id="path12067" /><path
           d="m 420.031,600.307 c -0.052,-0.411 -0.073,-0.828 -0.08,-1.245 -0.145,-1.166 -0.105,-2.364 -0.013,-3.469 0.199,-2.47 0.649,-5.005 1.423,-7.363 0.711,-2.158 1.816,-4.185 3.475,-5.757 l -3.081,23.943 c -0.821,-1.95 -1.484,-4.016 -1.724,-6.109"
           style="fill:#ff7200;fill-opacity:1;fill-rule:nonzero;stroke:none"
           id="path12069" /><path
           d="m 414.773,497.015 c 0.305,0.099 0.61,0.205 0.909,0.304 1.37,0.311 2.759,0.603 4.136,0.874 0.213,0.006 0.424,0.013 0.637,0.006 1.344,-0.019 2.688,0.007 3.965,0.272 1.59,-1.682 3.601,-2.992 5.807,-3.694 0.039,-0.013 0.079,-0.027 0.112,-0.033 -0.086,-0.271 -0.165,-0.537 -0.245,-0.802 -0.053,-0.158 -0.092,-0.317 -0.139,-0.476 -0.033,-0.106 -0.059,-0.212 -0.094,-0.324 v -0.007 c -0.006,0 -0.006,-0.007 -0.006,-0.013 -0.066,-0.226 -0.119,-0.457 -0.185,-0.689 -0.006,-0.026 -0.013,-0.066 -0.025,-0.099 -0.068,-0.265 -0.133,-0.523 -0.2,-0.788 v -0.026 c -0.092,-0.344 -0.159,-0.696 -0.238,-1.046 -0.04,-0.2 -0.093,-0.391 -0.133,-0.583 -0.072,-0.37 -0.138,-0.748 -0.205,-1.119 -0.033,-0.172 -0.066,-0.344 -0.099,-0.516 v -0.007 -0.007 c -0.04,-0.234 -0.069,-0.471 -0.104,-0.707 l 8.938,-4.312 -8.347,64.884 c -0.153,-0.051 -0.308,-0.101 -0.46,-0.155 -12.777,-4.515 -21.861,-14.823 -31.627,-23.701 -2.919,-2.655 -5.951,-5.164 -9.076,-7.573 -1.178,-0.914 -2.516,-1.927 -3.813,-2.888 -0.285,-0.211 -0.563,-0.423 -0.834,-0.622 -0.345,-0.251 -0.689,-0.503 -1.04,-0.748 -0.053,0.106 -0.106,0.212 -0.166,0.311 -0.013,0.034 -0.026,0.067 -0.046,0.093 -0.013,0.02 -0.026,0.039 -0.033,0.06 -0.026,0.04 -0.053,0.072 -0.073,0.112 -0.086,0.152 -0.178,0.298 -0.284,0.437 -0.013,0.013 -0.02,0.027 -0.034,0.046 -0.086,0.126 -0.185,0.246 -0.284,0.365 -0.033,0.04 -0.066,0.079 -0.106,0.119 -0.106,0.126 -0.219,0.245 -0.331,0.357 -0.033,0.034 -0.066,0.06 -0.093,0.086 -0.093,0.093 -0.199,0.179 -0.291,0.265 -0.053,0.04 -0.093,0.08 -0.146,0.112 -0.013,0.021 -0.04,0.04 -0.053,0.054 h -0.007 c -0.43,0.331 -0.893,0.622 -1.383,0.841 -1.953,0.86 -4.025,0.893 -5.992,0.218 -0.006,0 -0.013,-0.006 -0.02,-0.006 -0.251,-0.086 -0.489,-0.18 -0.734,-0.291 -0.299,-0.133 -0.596,-0.287 -0.886,-0.457 l 40.528,-19.553 c 0.824,0.434 1.648,0.866 2.484,1.273 0.106,0.053 0.211,0.1 0.316,0.153"
           style="fill:#ff7200;fill-opacity:1;fill-rule:nonzero;stroke:none"
           id="path12071" /><path
           d="m 419.408,611.76 c 0.02,0.04 0.033,0.086 0.04,0.132 v 0.006 c 0.007,0.047 0.013,0.086 0.007,0.14 -0.004,0.148 -0.064,0.294 -0.158,0.402 l -1.709,-2.155 c 0.776,0.153 1.432,0.588 1.82,1.475"
           style="fill:#ff7200;fill-opacity:1;fill-rule:nonzero;stroke:none"
           id="path12073" /><path
           d="m 424.176,594.374 c 0.424,-1.351 1.045,-2.595 1.82,-3.767 0.761,-1.158 1.728,-2.291 3.078,-2.734 2.84,-0.92 5.508,0.708 7.011,3.052 0.219,0.351 0.431,0.709 0.63,1.079 -0.007,-0.053 -0.014,-0.106 -0.014,-0.152 -0.212,-1.278 -0.543,-2.536 -1.006,-3.674 -0.814,-2 -2.377,-4.092 -4.515,-4.727 -2.463,-0.728 -3.946,1.588 -4.932,3.528 -0.418,0.828 -0.795,1.689 -1.106,2.562 -0.146,0.53 -0.312,1.047 -0.423,1.55 -0.259,1.151 -0.478,2.304 -0.61,3.475 0,0.02 0,0.04 -0.007,0.06 0.027,-0.086 0.046,-0.172 0.074,-0.252 m 6.023,0.146 c 2.563,-0.278 4.383,1.748 5.324,3.893 -0.066,-0.431 -0.132,-0.861 -0.239,-1.285 -0.119,-0.503 -0.264,-0.992 -0.423,-1.476 -0.344,-0.828 -0.781,-1.602 -1.318,-2.31 -0.676,-0.895 -1.635,-1.953 -2.728,-2.291 -1.211,-0.371 -1.979,0.887 -2.495,1.814 -0.57,1.046 -1.052,2.158 -1.43,3.297 -0.119,0.331 -0.212,0.675 -0.312,1.013 0.788,-1.37 1.947,-2.47 3.621,-2.655 m -8.444,11.896 3.081,-23.943 c 0.009,-0.009 0.018,-0.02 0.027,-0.029 0.252,-0.224 0.524,-0.457 0.809,-0.674 0.648,-0.676 1.402,-1.286 2.264,-1.656 1.839,-0.788 4.33,0 6.011,0.834 3.369,1.668 5.112,5.296 5.574,8.971 0.125,0.622 0.232,1.251 0.305,1.88 0.039,0.41 0.072,0.827 0.092,1.238 0.497,-0.636 1.02,-1.258 1.576,-1.853 1.867,-2.013 4.052,-3.695 6.527,-4.84 0.028,-0.107 0.053,-0.205 0.067,-0.312 0.008,0 0.008,-0.006 0.008,-0.012 0.549,-2.47 1.449,-4.886 2.402,-7.184 1.576,-3.819 3.29,-7.594 4.959,-11.367 0.873,-1.973 1.728,-3.972 2.588,-5.965 v 0.007 c 0.066,-0.153 0.126,-0.298 0.192,-0.444 0.153,-0.351 0.298,-0.695 0.451,-1.04 0.285,-0.662 0.582,-1.33 0.88,-1.999 0.079,-0.185 0.165,-0.377 0.252,-0.569 0.238,-0.543 0.49,-1.086 0.735,-1.629 0.091,-0.205 0.191,-0.41 0.284,-0.615 0.318,-0.702 0.649,-1.398 0.979,-2.086 0.053,-0.106 0.107,-0.212 0.153,-0.324 0.291,-0.603 0.59,-1.199 0.894,-1.794 0.092,-0.186 0.186,-0.378 0.284,-0.57 0.179,-0.344 0.351,-0.681 0.537,-1.026 -1.536,0.86 -3.953,-0.019 -5.137,-1.06 -0.364,-0.317 -0.69,-0.681 -1.039,-1.012 -0.061,-0.053 -0.273,-0.219 -0.285,-0.232 -0.028,-0.019 -0.047,-0.026 -0.067,-0.04 -0.166,0.007 -0.338,0.007 -0.496,-0.019 -0.047,0 -0.086,-0.007 -0.113,-0.014 -0.02,0.007 -0.053,0.014 -0.092,0.027 -0.385,0.092 -0.769,0.205 -1.14,0.344 -0.052,0.027 -0.323,0.133 -0.37,0.146 -0.159,0.066 -0.304,0.133 -0.457,0.198 -0.457,0.192 -0.914,0.378 -1.39,0.523 -0.1,0.034 -0.2,0.06 -0.298,0.086 -0.172,0.053 -0.337,0.086 -0.503,0.119 -0.027,0.014 -0.053,0.014 -0.08,0.02 -0.158,0.034 -0.318,0.06 -0.49,0.073 -0.026,0.007 -0.053,0.014 -0.085,0.014 -0.166,0.019 -0.326,0.026 -0.498,0.033 h -0.066 c -0.172,0 -0.344,-0.007 -0.516,-0.02 -0.139,-0.013 -0.265,-0.034 -0.397,-0.053 -0.51,0.185 -1.032,0.291 -1.575,0.338 -0.324,0.105 -0.662,0.205 -0.994,0.291 -6.026,1.587 -12.489,0.926 -18.341,-1.07 l 8.347,-64.884 134.875,54.026 -62.252,31.598 c -0.371,-0.107 -0.733,-0.231 -1.079,-0.385 -0.351,-0.152 -0.423,-0.483 -0.337,-0.787 -1.113,0.178 -2.225,0.403 -3.324,0.721 -5.473,1.547 -9.938,5.146 -13.307,9.611 l -60.378,30.646 c 0.059,-0.135 0.12,-0.274 0.178,-0.409 0.047,-0.099 0.086,-0.205 0.126,-0.305 0.358,-0.827 0.715,-1.661 1.074,-2.496 0.098,-0.224 0.197,-0.45 0.291,-0.674 0.079,-0.172 0.144,-0.345 0.224,-0.51 -0.066,-0.345 -0.119,-0.682 -0.172,-1.014 -0.146,-0.873 -0.377,-1.734 -0.669,-2.568 -0.059,-0.146 -0.131,-0.305 -0.205,-0.45 -0.411,-0.861 -1.436,-2.721 -2.429,-1.364 -0.722,0.98 -0.88,2.469 -1.053,3.641 -0.212,1.51 -0.258,3.032 -0.132,4.542 0.078,0.937 0.227,1.875 0.43,2.794 l -4.515,2.291 c -1.047,-1.401 -1.925,-2.923 -2.669,-4.516 -0.181,-0.393 -0.355,-0.795 -0.526,-1.199"
           style="fill:#fc6300;fill-opacity:1;fill-rule:nonzero;stroke:none"
           id="path12075" /><path
           d="m 589.063,611.19 c 0.47,-1.331 0.927,-2.668 1.311,-4.025 0.146,-0.503 0.312,-1.026 0.45,-1.562 0.014,-0.04 0.027,-0.08 0.039,-0.12 0.008,0.027 0.008,0.06 0,0.093 -0.673,3.038 -1.453,6.062 -2.332,9.061 l -0.686,-10e-4 c 0.409,-1.149 0.813,-2.298 1.218,-3.446"
           style="fill:#f23700;fill-opacity:1;fill-rule:nonzero;stroke:none"
           id="path12077" /><path
           d="m 585.224,589.991 c -0.199,0.212 -0.398,0.431 -0.589,0.643 -0.246,0.377 -0.485,0.755 -0.723,1.132 0.438,-0.589 0.875,-1.178 1.312,-1.775 m -14.843,7.879 c -0.199,0.318 -0.398,0.642 -0.596,0.96 -0.094,0.152 -0.185,0.291 -0.279,0.437 1.258,-1.239 2.496,-2.496 3.695,-3.787 1.225,-1.318 2.41,-2.674 3.535,-4.072 0.172,-0.212 0.33,-0.424 0.503,-0.636 0.013,-0.019 0.06,-0.079 0.107,-0.131 0.039,-0.053 0.079,-0.114 0.119,-0.173 -2.305,2.516 -4.668,4.985 -7.084,7.402 m -2.186,-43.801 c -0.37,0.676 -0.734,1.351 -1.098,2.033 0.834,-1.371 1.602,-2.794 2.277,-4.25 -0.391,0.748 -0.781,1.482 -1.179,2.217 m -2.263,45.734 c -1.178,1.39 -2.391,2.741 -3.628,4.065 0.721,-0.682 1.429,-1.377 2.137,-2.072 0.438,-0.431 0.874,-0.874 1.305,-1.317 0.331,-0.47 0.655,-0.947 0.973,-1.431 0.02,-0.072 0.033,-0.152 0.053,-0.232 -0.284,0.331 -0.563,0.663 -0.84,0.987 m -3.066,2.748 c 0.762,-0.867 1.503,-1.741 2.245,-2.622 -0.756,0.867 -1.517,1.727 -2.245,2.622 m -34.565,-28.455 h -0.172 c -0.093,0 -0.191,0 -0.291,-0.007 -0.053,-0.006 -0.113,-0.013 -0.172,-0.013 -0.1,-0.013 -0.205,-0.033 -0.312,-0.053 -0.012,0 -0.033,-0.006 -0.046,-0.006 -2.29,2.813 -4.714,5.528 -7.349,8.044 -4.688,4.495 -9.784,8.527 -14.736,12.724 -0.028,0.027 -0.053,0.053 -0.086,0.079 0.165,0.212 0.31,0.437 0.457,0.662 0.913,-0.768 1.826,-1.536 2.74,-2.304 5.018,-4.177 10.116,-8.301 14.658,-12.995 1.893,-1.947 3.674,-4.006 5.382,-6.138 -0.02,0.007 -0.046,0 -0.073,0.007 m -25.979,23.217 c -0.787,0.703 -1.568,1.405 -2.343,2.12 0.251,0.105 0.497,0.231 0.735,0.37 0.099,-0.093 0.192,-0.185 0.298,-0.271 0.569,-0.523 1.138,-1.027 1.721,-1.543 -0.132,-0.225 -0.264,-0.45 -0.411,-0.676 m 77.731,-15.352 c 0.264,-0.351 0.523,-0.715 0.788,-1.072 -0.676,0.576 -1.351,1.145 -2.032,1.708 -0.795,1.536 -1.715,3.025 -2.708,4.468 1.343,-1.681 2.661,-3.376 3.952,-5.104 m -80.69,12.758 c -0.218,-0.093 -0.424,-0.159 -0.629,-0.199 -2.217,1.9 -4.369,3.874 -6.421,5.952 -0.2,0.496 -0.411,0.993 -0.57,1.469 -0.007,0.034 -0.013,0.06 -0.026,0.086 0.396,-0.417 0.795,-0.834 1.205,-1.238 2.092,-2.104 4.29,-4.098 6.541,-6.024 -0.027,-0.013 -0.067,-0.034 -0.1,-0.046 m -4.759,10.884 c 1.072,-1.013 2.13,-2.04 3.204,-3.066 -1.046,-0.152 -1.855,0.901 -2.417,1.708 -0.338,0.484 -0.655,0.993 -0.947,1.51 0.054,-0.047 0.107,-0.1 0.16,-0.152 m 83,6.495 c 2.296,-2.491 4.455,-5.099 6.488,-7.806 -1.331,1.416 -2.682,2.8 -4.059,4.157 -2.145,2.113 -4.355,4.159 -6.614,6.155 l -1.886,-0.004 c 1.559,-1.354 3.101,-2.724 4.608,-4.131 4.13,-3.861 8.062,-7.938 11.757,-12.228 -1.285,1.304 -2.602,2.581 -3.919,3.853 -4.211,4.045 -8.421,8.116 -12.883,11.889 -0.096,0.205 -0.194,0.411 -0.291,0.615 l -144.026,-0.319 c -0.195,-0.204 -0.375,-0.4 -0.531,-0.573 -0.461,-0.504 -0.891,-1.031 -1.298,-1.575 l 4.515,-2.291 c 0.103,0.469 0.217,0.933 0.351,1.389 0.092,0.319 0.198,0.743 0.337,1.179 0.298,-0.675 0.589,-1.337 0.888,-2.012 0.152,-0.351 0.311,-0.702 0.457,-1.046 0.104,-0.234 0.203,-0.465 0.304,-0.697 l 60.378,-30.646 c -0.221,0.293 -0.438,0.589 -0.649,0.889 -3.8,5.389 -5.984,11.692 -7.878,17.961 -0.053,0.192 -0.12,0.384 -0.173,0.576 -0.013,0.033 -0.025,0.066 -0.039,0.092 0.02,0.027 0.034,0.053 0.053,0.074 0.039,0.066 0.093,0.126 0.133,0.191 0.82,1.192 1.509,2.489 2.072,3.84 0.377,0.636 0.735,1.285 1.066,1.947 0.436,-1.728 0.993,-3.443 1.708,-5.045 0.98,-2.198 2.37,-4.197 4.302,-5.64 0.292,-0.212 0.596,-0.424 0.928,-0.61 0.754,-0.642 1.609,-1.178 2.555,-1.463 0.842,-0.252 1.762,-0.205 2.681,0.013 0.332,-0.271 0.656,-0.543 0.987,-0.801 0.066,-0.052 0.119,-0.099 0.172,-0.145 0.179,-0.133 0.365,-0.272 0.543,-0.41 0.278,-0.205 0.556,-0.412 0.834,-0.617 0.662,-0.483 1.338,-0.965 2.013,-1.436 5.561,-3.879 11.487,-7.203 17.266,-10.758 1.549,-0.953 3.085,-1.92 4.621,-2.907 0.072,0.027 0.146,0.054 0.225,0.08 -3.364,2.853 -6.952,5.415 -10.513,8.03 -4.251,3.125 -8.515,6.243 -12.626,9.554 -0.225,0.179 -0.457,0.37 -0.682,0.549 0.219,0.119 0.424,0.245 0.623,0.364 5.025,-4.064 10.301,-7.838 15.532,-11.639 2.959,-2.144 5.865,-4.33 8.619,-6.7 h 0.127 c -0.034,0 -0.074,-0.013 -0.1,-0.013 0.046,-0.045 0.092,-0.092 0.146,-0.132 -0.232,-0.086 -0.491,-0.192 -0.769,-0.325 -0.105,0.086 -0.205,0.179 -0.311,0.272 -0.085,-0.013 -0.178,-0.033 -0.265,-0.053 0.146,-0.093 0.292,-0.185 0.443,-0.285 -0.747,-0.363 -1.588,-0.866 -2.263,-1.476 -0.424,0.159 -0.848,0.279 -1.251,0.331 -1.325,0.172 -2.775,-0.159 -3.966,-0.742 -0.768,-0.37 -1.615,-1.039 -1.959,-1.84 -0.795,-0.073 -1.59,-0.159 -2.384,-0.252 -1.23,-0.152 -2.552,-0.283 -3.774,-0.634 l 62.252,-31.598 11.351,40.948 c -0.356,0.332 -0.711,0.67 -1.069,0.996 -0.782,1.06 -1.564,2.113 -2.351,3.145 -1.338,1.774 -2.707,3.51 -4.125,5.218 -0.105,0.132 -0.211,0.264 -0.324,0.396 0.562,-0.384 1.119,-0.767 1.669,-1.165 0.509,-0.522 1.026,-1.046 1.529,-1.575 1.655,-2.136 3.257,-4.311 4.81,-6.517 l 2.757,9.946 c -0.042,0.057 -0.083,0.115 -0.125,0.172 -1.722,2.357 -3.483,4.681 -5.284,6.978 -0.529,0.676 -1.052,1.351 -1.583,2.025 -0.337,0.464 -0.681,0.934 -1.039,1.391 1.047,-0.848 2.079,-1.721 3.099,-2.602 1.792,-2.266 3.533,-4.565 5.227,-6.899 l 0.155,0.557 c -1.194,1.63 -2.406,3.242 -3.66,4.826 1.297,-1.145 2.561,-2.317 3.806,-3.522 0.053,-0.071 0.104,-0.142 0.157,-0.213 l 2.472,8.918 c -2.068,3.139 -4.288,6.182 -6.674,9.111 -1.464,1.795 -2.99,3.54 -4.572,5.232 l -3.496,-0.008 c 0.812,-0.822 1.611,-1.659 2.395,-2.509"
           style="fill:#f23700;fill-opacity:1;fill-rule:nonzero;stroke:none"
           id="path12079" /><path
           d="m 597.57,565.146 c 0.319,-0.829 0.669,-1.649 0.987,-2.47 0.138,-0.358 0.278,-0.702 0.41,-1.06 -0.172,0.364 -0.351,0.729 -0.529,1.086 -0.364,0.934 -0.735,1.867 -1.113,2.794 0.087,-0.119 0.165,-0.238 0.245,-0.35 m 1.782,-2.642 c 0.992,-2.271 1.965,-4.555 2.959,-6.819 0.033,-0.093 0.113,-0.12 0.191,-0.113 0.451,-1.04 0.894,-2.079 1.324,-3.125 0.021,-0.047 0.041,-0.099 0.053,-0.145 -0.066,0.133 -0.132,0.258 -0.197,0.39 -0.709,1.337 -1.451,2.649 -2.225,3.946 -0.252,0.642 -0.504,1.284 -0.755,1.92 -0.543,1.383 -1.112,2.767 -1.702,4.131 -0.139,0.318 -0.271,0.642 -0.403,0.966 0.251,-0.384 0.509,-0.767 0.755,-1.151 m 6.196,-12.129 c 0.616,-1.655 1.152,-3.344 1.608,-5.045 -0.283,0.689 -0.582,1.371 -0.886,2.046 -0.384,1.848 -1.159,3.654 -1.874,5.389 -0.57,1.397 -1.166,2.774 -1.781,4.158 1.106,-2.119 2.099,-4.297 2.933,-6.548 m 7.858,5.064 c 1.45,-3.992 2.576,-8.056 3.264,-12.201 -0.053,0.239 -0.119,0.484 -0.185,0.729 -0.239,1.184 -0.503,2.37 -0.795,3.548 -1.006,4.079 -2.475,8.05 -4.085,11.936 -2.403,5.793 -5.111,11.434 -8.07,16.955 3.9,-6.686 7.243,-13.69 9.871,-20.967 m -9.367,-12.929 c 0.158,-0.344 0.317,-0.689 0.463,-1.046 0.159,-0.477 0.305,-0.946 0.45,-1.423 -0.291,0.827 -0.596,1.648 -0.913,2.469 m -10.699,40.311 c 0.702,-1.118 1.39,-2.244 2.065,-3.383 -0.966,1.113 -1.96,2.199 -2.966,3.271 -1.416,2.145 -2.873,4.27 -4.382,6.355 -0.289,0.404 -0.588,0.798 -0.881,1.199 l -0.155,-0.557 c 0.27,-0.372 0.543,-0.743 0.811,-1.118 0.939,-1.311 1.854,-2.649 2.761,-3.985 -1.033,1.039 -2.085,2.058 -3.158,3.058 -0.237,0.326 -0.473,0.653 -0.709,0.98 l -2.757,-9.946 c 0.291,-0.414 0.584,-0.827 0.871,-1.243 0.046,-0.105 0.092,-0.211 0.133,-0.317 -0.377,0.358 -0.761,0.708 -1.143,1.062 l -11.351,-40.948 31.582,-1.484 c -0.456,1.752 -0.965,3.489 -1.539,5.203 -0.178,0.522 -0.357,1.039 -0.543,1.562 -0.258,1.225 -0.522,2.443 -0.814,3.66 -0.079,0.345 -0.165,0.683 -0.251,1.021 0.106,-0.119 0.211,-0.239 0.311,-0.364 -0.006,0.019 -0.006,0.032 -0.013,0.046 -0.021,0.066 0.059,0.113 0.105,0.066 0.326,-0.378 0.617,-0.781 0.908,-1.191 0.41,-1.371 0.8,-2.754 1.165,-4.138 0.506,-1.951 0.952,-3.919 1.34,-5.898 l 0.685,-0.032 c -0.268,1.427 -0.56,2.848 -0.887,4.261 0.384,-1.079 0.769,-2.165 1.139,-3.251 0.118,-0.345 0.233,-0.691 0.351,-1.038 l 1.229,-0.058 c -0.44,1.762 -0.916,3.514 -1.421,5.261 0.212,-0.285 0.41,-0.576 0.622,-0.86 1.001,-1.41 1.79,-2.893 2.341,-4.473 l 1.768,-0.083 c -0.015,0.055 -0.029,0.11 -0.043,0.166 -0.239,0.86 -0.491,1.715 -0.755,2.562 -0.384,2.8 -0.96,5.568 -1.736,8.301 1.047,-2.674 1.987,-5.394 2.808,-8.135 0.181,-0.976 0.353,-1.953 0.516,-2.931 l 2.195,-0.104 c -0.329,2.149 -0.694,4.291 -1.103,6.424 0.51,-2.129 0.937,-4.276 1.303,-6.432 l 0.564,-0.028 c -0.823,4.963 -1.99,9.852 -3.607,14.616 -0.299,1.232 -0.603,2.463 -0.921,3.695 0.643,-1.444 1.279,-2.887 1.921,-4.337 0.814,-2.35 1.535,-4.734 2.178,-7.143 0.605,-2.28 1.13,-4.576 1.592,-6.885 l 2.931,-0.138 c -0.043,0.253 -0.083,0.507 -0.128,0.76 -0.159,5.057 -0.913,10.049 -2.317,14.962 -3.025,10.566 -7.904,20.709 -13.717,30.043 2.649,-3.125 5.032,-6.481 7.116,-10.023 2.761,-4.674 5.013,-9.626 6.661,-14.803 0.966,-3.019 1.721,-6.111 2.343,-9.229 0.643,-3.204 1.04,-6.461 1.728,-9.659 0.08,-0.377 0.159,-0.748 0.246,-1.119 0.033,-0.341 0.061,-0.684 0.087,-1.027 l 0.399,-0.018 c -0.084,1.213 -0.211,2.468 -0.427,3.693 v 0.59 c -0.046,3.707 -0.477,7.282 -1.272,10.903 -0.794,3.595 -1.8,7.156 -2.926,10.659 -0.489,1.549 -1.058,3.059 -1.681,4.535 -0.371,0.821 -0.741,1.635 -1.139,2.443 -0.794,1.615 -1.654,3.198 -2.561,4.754 -0.046,0.072 -0.086,0.145 -0.126,0.217 -4.052,6.853 -9.223,13.063 -15.227,18.28 -1.703,3.153 -3.537,6.23 -5.508,9.221 l -2.472,-8.918 c 2.053,-2.767 4.015,-5.615 5.861,-8.533"
           style="fill:#db2f00;fill-opacity:1;fill-rule:nonzero;stroke:none"
           id="path12081" /><path
           d="m 358.824,536.191 c -0.148,2.046 -0.2,4.097 -0.178,6.147 0.013,0.94 0.027,1.887 0.053,2.834 0.504,0.41 1.013,0.834 1.51,1.27 0.119,0.107 0.238,0.226 0.364,0.331 0.033,0.04 0.073,0.081 0.112,0.113 v 0.007 c 0.08,0.073 0.159,0.152 0.239,0.231 h 0.006 c 0.047,0.047 0.087,0.087 0.127,0.133 0.079,0.079 0.145,0.152 0.224,0.231 0.04,0.047 0.08,0.093 0.126,0.14 0.086,0.092 0.166,0.185 0.245,0.277 0.04,0.053 0.086,0.107 0.133,0.159 v 0.007 c 0.079,0.093 0.158,0.192 0.237,0.291 0.047,0.067 0.093,0.119 0.14,0.186 0.046,0.066 0.099,0.133 0.152,0.205 0.046,0.066 0.093,0.139 0.145,0.205 0.041,0.066 0.08,0.126 0.12,0.186 0.053,0.08 0.106,0.152 0.146,0.225 0.039,0.053 0.072,0.112 0.106,0.172 0.106,0.165 0.198,0.337 0.291,0.51 0.013,0.033 0.04,0.073 0.053,0.105 0.053,0.086 0.093,0.179 0.139,0.272 0.02,0.052 0.046,0.106 0.073,0.159 0.04,0.093 0.079,0.185 0.119,0.278 0.026,0.046 0.039,0.099 0.066,0.146 0.04,0.105 0.079,0.198 0.113,0.298 0.013,0.033 0.026,0.073 0.04,0.112 0.086,0.238 0.158,0.483 0.218,0.728 h 0.006 c 0.02,0.1 0.047,0.199 0.067,0.291 0.019,0.067 0.032,0.133 0.046,0.193 0.013,0.086 0.026,0.165 0.04,0.258 0.02,0.087 0.032,0.172 0.046,0.264 0.007,0.067 0.02,0.133 0.026,0.199 0.02,0.166 0.034,0.332 0.047,0.49 0.007,0.173 0.013,0.331 0.007,0.497 0,0.046 -0.007,0.099 -0.007,0.152 0,0.112 -0.013,0.225 -0.02,0.338 -0.007,0.053 -0.007,0.106 -0.013,0.158 -0.014,0.119 -0.033,0.232 -0.047,0.352 -0.013,0.039 -0.013,0.079 -0.026,0.125 -0.027,0.152 -0.06,0.305 -0.093,0.457 -0.013,0.026 -0.026,0.066 -0.033,0.093 -0.033,0.119 -0.066,0.238 -0.099,0.357 -0.02,0.047 -0.04,0.093 -0.054,0.146 -0.039,0.099 -0.079,0.199 -0.118,0.297 -0.014,0.047 -0.04,0.1 -0.053,0.147 -0.053,0.112 -0.106,0.231 -0.159,0.344 -0.014,0.026 -0.027,0.052 -0.04,0.072 -0.066,0.14 -0.146,0.278 -0.218,0.411 -0.02,0.039 -0.047,0.079 -0.073,0.119 -0.053,0.093 -0.113,0.186 -0.173,0.279 -0.033,0.045 -0.065,0.092 -0.092,0.138 -0.066,0.086 -0.126,0.172 -0.185,0.258 -0.034,0.04 -0.067,0.08 -0.093,0.12 -0.093,0.125 -0.185,0.244 -0.291,0.363 -0.014,0.021 -0.034,0.04 -0.053,0.06 -0.08,0.1 -0.173,0.199 -0.252,0.292 -0.039,0.039 -0.079,0.079 -0.119,0.119 -0.04,0.039 -0.08,0.086 -0.119,0.125 v -0.006 c -0.424,0.43 -0.887,0.827 -1.377,1.185 -2.079,1.529 -4.694,2.463 -7.376,2.946 -0.119,0.026 -0.238,0.04 -0.357,0.066 -0.086,0.013 -0.172,0.027 -0.251,0.04 0,0.013 -0.007,0.027 -0.007,0.04 -0.027,0.635 -0.046,1.278 -0.073,1.913 -0.106,3.648 -0.066,7.302 0.232,10.944 0.602,7.428 2.284,14.869 5.462,21.635 0.49,1.033 1.006,2.053 1.562,3.046 0.027,-0.027 0.053,-0.054 0.073,-0.086 v -0.007 c 0.046,-0.066 0.099,-0.119 0.152,-0.186 0.106,-0.145 0.219,-0.278 0.331,-0.417 0.066,-0.073 0.132,-0.139 0.199,-0.212 0.119,-0.126 0.231,-0.257 0.357,-0.377 0.093,-0.092 0.186,-0.172 0.285,-0.264 0.099,-0.094 0.198,-0.193 0.304,-0.279 0.206,-0.178 0.417,-0.344 0.636,-0.503 3.026,-2.218 6.825,-2.092 10.308,-1.271 2.509,0.589 4.979,1.344 7.461,2.066 0.947,0.198 1.901,0.397 2.853,0.595 4.158,0.848 8.329,1.682 12.487,2.556 1.972,0.417 3.972,0.794 5.905,1.351 0.403,0.119 0.788,0.25 1.139,0.436 0.424,0.119 0.821,0.305 1.165,0.543 0.171,0.126 0.371,0.291 0.543,0.49 0.49,0.219 0.953,0.477 1.396,0.768 0.232,0 0.457,0.013 0.689,0.033 h 0.02 c 0.582,0.047 1.158,0.146 1.721,0.238 0.921,0.159 1.986,0.405 2.748,0.96 0.047,0.027 0.073,0.067 0.113,0.1 0.225,0.265 0.244,0.708 -0.033,0.92 -0.007,0.093 -0.053,0.199 -0.147,0.278 -0.839,0.755 -1.826,1.284 -2.773,1.913 -0.484,0.321 -0.963,0.654 -1.441,0.989 L 338.3,602.107 c -0.14,-0.705 -0.26,-1.416 -0.368,-2.128 l 12.311,-74.608 z"
           style="fill:#fa6800;fill-opacity:1;fill-rule:nonzero;stroke:none"
           id="path12083" /><path
           d="m 417.588,610.285 1.709,2.155 c -0.052,0.062 -0.112,0.114 -0.187,0.14 -0.249,0.536 -0.9,0.901 -1.456,1.23 l -7.993,-1.179 c 0.857,-0.392 1.723,-0.765 2.597,-1.123 1.338,-0.546 3.626,-1.561 5.33,-1.223"
           style="fill:#fa6800;fill-opacity:1;fill-rule:nonzero;stroke:none"
           id="path12085" /><path
           d="m 505.586,689.245 c -0.615,0.649 -1.237,1.284 -1.859,1.92 0.794,-0.292 1.587,-0.597 2.382,-0.914 0.451,-0.338 0.901,-0.676 1.351,-1.013 -0.622,0.007 -1.245,0.007 -1.874,0.007 m -3.117,3.191 c -0.252,0.331 -0.504,0.675 -0.756,1.013 1.245,-0.887 2.483,-1.781 3.715,-2.694 -0.682,0.264 -1.364,0.516 -2.046,0.754 -0.304,0.311 -0.609,0.623 -0.913,0.927 m 15.113,-3.688 c -0.35,0.033 -0.708,0.06 -1.053,0.093 -1.223,1.053 -2.468,2.086 -3.746,3.092 -0.238,0.192 -0.49,0.383 -0.742,0.569 -0.781,0.669 -1.562,1.331 -2.35,1.986 2.702,-1.813 5.336,-3.727 7.891,-5.74 m -4.732,-4.574 c 0.423,-0.067 0.846,-0.146 1.27,-0.226 0.152,-0.126 0.305,-0.251 0.464,-0.384 0.277,-0.344 0.568,-0.688 0.848,-1.033 0.291,-0.37 0.575,-0.741 0.86,-1.111 -1.112,0.946 -2.258,1.866 -3.442,2.754 m 10.658,-13.082 c -3.217,3.211 -6.528,6.348 -9.877,9.44 -1.219,1.391 -2.463,2.768 -3.715,4.131 0.629,-0.099 1.265,-0.198 1.887,-0.305 1.244,-0.886 2.463,-1.82 3.654,-2.813 0.755,-0.629 1.496,-1.284 2.225,-1.952 2.052,-2.755 3.986,-5.602 5.826,-8.501 m -1.987,14.426 c 0.053,-0.046 0.1,-0.086 0.153,-0.133 0.305,-0.258 0.602,-0.523 0.907,-0.788 -0.636,0.159 -1.278,0.318 -1.92,0.477 -0.212,0.205 -0.436,0.41 -0.649,0.622 0.504,-0.052 1.007,-0.119 1.509,-0.178 m 5.006,-4.529 c 1.695,-1.609 3.336,-3.263 4.939,-4.959 -2.072,1.616 -4.198,3.152 -6.389,4.595 -0.338,0.357 -0.675,0.715 -1.013,1.072 0.821,-0.224 1.642,-0.463 2.463,-0.708 m -17.412,-4.845 c -0.338,0.509 -0.681,0.999 -1.033,1.502 0.464,-0.423 0.92,-0.847 1.377,-1.278 2.326,-2.825 4.645,-5.601 6.885,-8.433 l 13.63,-9.361 c -0.151,0.249 -0.298,0.498 -0.454,0.746 0.388,-0.403 0.767,-0.815 1.15,-1.223 l 11.627,-7.986 c -0.627,0.801 -1.254,1.602 -1.894,2.39 -2.105,2.596 -4.27,5.138 -6.495,7.627 -1.635,2.755 -3.402,5.442 -5.308,8.018 -1.114,1.833 -2.246,3.661 -3.424,5.449 0.013,-0.014 0.033,-0.028 0.053,-0.047 0.834,-0.894 1.642,-1.808 2.437,-2.741 3.693,-4.31 6.938,-8.977 10.089,-13.698 1.579,-2.366 3.157,-4.745 4.731,-7.128 l 2,-1.373 c -1.231,1.909 -2.472,3.81 -3.718,5.707 -1.424,2.159 -2.854,4.317 -4.324,6.461 3.37,-4.15 6.654,-8.38 9.791,-12.704 0.281,-0.409 0.554,-0.823 0.83,-1.235 l 8.529,-5.857 c -2.145,3.691 -4.438,7.294 -6.955,10.76 -1.404,1.927 -2.826,3.833 -4.277,5.714 -0.86,1.277 -1.748,2.528 -2.661,3.774 -4.463,6.123 -9.394,11.863 -14.658,17.292 -0.265,0.285 -0.529,0.569 -0.794,0.854 2.476,-1.728 4.879,-3.556 7.196,-5.495 2.854,-3.158 5.561,-6.455 8.123,-9.864 5.717,-7.595 10.752,-15.67 15.381,-23.966 l 1.676,-1.151 c -4.344,7.98 -9.026,15.783 -14.329,23.15 -1.589,2.212 -3.232,4.37 -4.933,6.488 9.163,-8.925 16.612,-19.55 21.822,-31.248 0.03,-0.069 0.059,-0.14 0.089,-0.209 l 0.827,-0.567 c -2.646,6.06 -5.824,11.859 -9.595,17.301 -4.436,6.375 -9.613,12.241 -15.38,17.451 -2.628,3.125 -5.382,6.131 -8.282,9.004 9.573,-3.125 18.717,-7.726 26.508,-14.155 8.196,-6.766 14.856,-15.207 20.139,-24.389 0.284,-0.491 0.557,-0.98 0.834,-1.47 0.027,-0.026 0.054,-0.053 0.08,-0.08 0.417,-0.43 0.781,-0.927 1.118,-1.416 0.629,-0.914 1.139,-1.894 1.603,-2.887 0.769,-1.013 1.304,-2.317 1.702,-3.31 0.118,-0.298 0.237,-0.596 0.351,-0.901 1.223,-2.316 2.184,-4.779 3.051,-7.282 0.331,-0.96 0.663,-1.92 0.987,-2.88 0.162,-0.396 0.318,-0.794 0.479,-1.19 l 1.352,-0.929 c -2.193,6.603 -4.876,13.053 -8.034,19.22 -4.873,9.52 -11.096,18.444 -18.842,25.859 -7.852,7.521 -17.199,13.088 -27.356,16.902 -2.582,0.973 -5.204,1.828 -7.851,2.582 -0.067,0.059 -0.133,0.125 -0.205,0.192 -0.411,0.371 -0.828,0.741 -1.239,1.099 0.649,-0.093 1.297,-0.199 1.947,-0.311 10.507,-1.841 20.921,-5.224 29.759,-11.315 7.421,-5.111 13.604,-11.877 18.49,-19.411 0.994,-1.536 1.94,-3.111 2.834,-4.707 0.105,-0.152 0.224,-0.31 0.331,-0.469 0.813,-1.153 1.575,-2.358 2.244,-3.595 1.317,-2.444 2.39,-5.026 3.396,-7.608 1.027,-2.634 1.92,-5.309 2.886,-7.963 0.266,-0.743 0.53,-1.491 0.795,-2.232 -0.45,3.979 -1.814,7.932 -3.178,11.652 -1.588,4.343 -3.496,8.574 -5.733,12.619 -4.409,7.963 -10.195,15.253 -17.266,21.019 -3.615,2.953 -7.534,5.522 -11.731,7.581 -5.158,2.542 -10.658,4.382 -16.221,5.773 -4.091,1.019 -8.256,1.774 -12.445,2.264 -5.402,4.396 -11.17,8.355 -17.213,11.824 -3.774,2.972 -7.614,5.885 -11.514,8.699 -1.144,1.033 -2.31,2.052 -3.542,2.993 -1.615,1.251 -3.634,2.542 -5.772,3.39 -0.312,0.198 -0.623,0.396 -0.934,0.595 -0.146,0.099 -0.271,-0.066 -0.224,-0.192 -1.107,0.338 -2.233,0.529 -3.338,0.523 -0.205,0.067 -0.404,0.132 -0.615,0.199 -0.286,0.092 -0.582,0.166 -0.874,0.238 -1.232,0.602 -2.516,1.073 -3.853,1.231 -0.027,0 -0.054,0 -0.08,0.007 -0.715,0.768 -1.549,1.423 -2.291,1.94 -4.124,2.82 -9.971,3.072 -14.094,0.192 -1.742,2.032 -4.913,2.813 -7.541,1.873 -1.179,-0.423 -2.244,-1.059 -3.218,-1.82 -0.159,0.086 -0.317,0.172 -0.476,0.252 -1.568,0.788 -3.148,0.866 -4.622,0.283 l 74.467,-51.14 c -1.552,2.208 -3.142,4.386 -4.78,6.527"
           style="fill:#e21c00;fill-opacity:1;fill-rule:nonzero;stroke:none"
           id="path12087" /><path
           d="m 586.296,618.816 c 0.538,-1.382 1.048,-2.78 1.549,-4.18 l 0.686,10e-4 c -0.466,1.589 -0.961,3.17 -1.483,4.742 l -1.352,0.929 c 0.2,-0.496 0.406,-0.991 0.6,-1.492"
           style="fill:#f24600;fill-opacity:1;fill-rule:nonzero;stroke:none"
           id="path12089" /><path
           d="m 485.6,674.76 c -0.053,0 -0.1,-0.007 -0.147,-0.014 -0.078,0.159 -0.158,0.305 -0.251,0.457 -0.139,0.51 -0.291,1.026 -0.457,1.529 0.305,-0.649 0.589,-1.304 0.855,-1.972 m 19.887,-27.403 c -0.026,0.02 -0.066,0.04 -0.092,0.06 -0.114,0.291 -0.225,0.589 -0.332,0.887 0.146,-0.318 0.285,-0.635 0.424,-0.947 m 20.193,-0.886 c -0.477,0.217 -0.948,0.436 -1.417,0.655 -1.337,1.873 -2.701,3.721 -4.091,5.548 -0.781,1.939 -1.57,3.879 -2.371,5.805 2.754,-3.912 5.389,-7.923 7.879,-12.008 m 1.972,-6.455 -0.04,0.012 c -0.092,0.153 -0.184,0.312 -0.278,0.464 0.106,-0.159 0.213,-0.318 0.318,-0.476 m 0.239,-0.371 c 0.45,-0.703 0.907,-1.417 1.363,-2.132 -0.092,0.04 -0.172,0.073 -0.258,0.106 -0.391,0.689 -0.781,1.363 -1.172,2.046 0.02,-0.007 0.04,-0.014 0.067,-0.02 m 1.761,-2.774 c 0.271,-0.431 0.543,-0.854 0.807,-1.285 -0.039,0.02 -0.086,0.047 -0.133,0.073 -0.144,0.193 -0.291,0.384 -0.435,0.576 -0.161,0.225 -0.326,0.457 -0.491,0.682 -0.013,0.026 -0.033,0.053 -0.052,0.08 0.105,-0.04 0.205,-0.08 0.304,-0.126 m 3.051,3.581 c 0.02,-0.059 0.047,-0.119 0.073,-0.172 -0.284,0.106 -0.569,0.199 -0.846,0.305 -0.233,0.132 -0.464,0.265 -0.69,0.397 -0.026,0.046 -0.047,0.092 -0.066,0.132 0.51,-0.224 1.019,-0.443 1.529,-0.662 m 0.986,-2.416 c 0.359,-0.881 0.696,-1.767 1.028,-2.661 -0.365,0.139 -0.729,0.277 -1.093,0.417 -0.079,0.172 -0.153,0.344 -0.226,0.517 -0.343,0.767 -0.687,1.535 -1.045,2.296 0.211,-0.046 0.423,-0.099 0.635,-0.152 0.232,-0.139 0.471,-0.278 0.701,-0.417 m 1.967,-5.269 c -0.31,0.171 -0.629,0.343 -0.939,0.515 -0.272,0.636 -0.551,1.265 -0.828,1.901 0.351,-0.14 0.701,-0.279 1.046,-0.411 0.245,-0.668 0.49,-1.337 0.721,-2.005 m 4.336,7.341 c -0.119,0.06 -0.251,0.12 -0.377,0.172 -0.205,0.444 -0.424,0.887 -0.641,1.337 0.344,-0.503 0.688,-1.006 1.018,-1.509 m 8.362,-3.839 c -1.198,0.576 -2.389,1.138 -3.594,1.694 -0.848,1.728 -1.696,3.442 -2.563,5.157 -0.45,1.112 -0.906,2.219 -1.384,3.323 2.636,-3.29 5.158,-6.679 7.541,-10.174 m 3.529,-5.416 c -0.371,0.271 -0.741,0.543 -1.125,0.807 -1.344,0.947 -2.741,1.788 -4.178,2.536 -0.007,0.013 -0.014,0.02 -0.019,0.033 1.562,-0.742 3.111,-1.509 4.647,-2.304 0.225,-0.357 0.45,-0.715 0.675,-1.072 m 3.111,-5.151 c -0.515,0.305 -1.032,0.61 -1.549,0.907 -1.091,0.815 -2.191,1.609 -3.297,2.397 -0.609,0.582 -1.177,1.198 -1.72,1.841 -0.086,0.105 -0.173,0.217 -0.266,0.324 -0.026,0.039 -0.059,0.079 -0.105,0.145 -0.1,0.132 -0.2,0.265 -0.305,0.398 -0.014,0.019 -0.014,0.032 -0.027,0.053 0.358,-0.205 0.709,-0.412 1.06,-0.623 1.588,-0.94 3.158,-1.914 4.713,-2.913 0.504,-0.847 1,-1.681 1.496,-2.529 m -13.638,10.924 c 0,0 -0.006,0.013 -0.012,0.02 0.277,-0.126 0.562,-0.258 0.84,-0.377 0.013,-0.027 0.02,-0.053 0.033,-0.074 -0.284,0.139 -0.57,0.285 -0.861,0.431 m 16.353,-8.302 c 0.318,-0.656 0.643,-1.318 0.96,-1.979 0.02,-0.047 0.033,-0.093 0.046,-0.14 -0.238,0.166 -0.463,0.331 -0.701,0.49 -0.649,0.861 -1.298,1.728 -1.948,2.595 0.551,-0.317 1.1,-0.635 1.643,-0.966 m 2.854,-3.429 c -0.126,0.085 -0.246,0.178 -0.372,0.264 -0.165,0.358 -0.337,0.715 -0.496,1.066 -0.093,0.311 -0.192,0.623 -0.291,0.933 0.397,-0.755 0.782,-1.509 1.159,-2.263 m 1.608,-3.39 c 0.12,-0.265 0.238,-0.524 0.357,-0.788 -0.026,0.02 -0.046,0.033 -0.065,0.047 -0.246,0.324 -0.484,0.648 -0.729,0.965 -0.04,0.107 -0.08,0.2 -0.126,0.292 0.193,-0.172 0.378,-0.344 0.563,-0.516 m -3.005,1.562 c -0.18,0.371 -0.358,0.742 -0.537,1.113 0.391,-0.517 0.788,-1.034 1.185,-1.55 -0.218,0.145 -0.437,0.292 -0.648,0.437 m 6.911,-0.383 c 0.53,-1.074 1.072,-2.146 1.603,-3.218 -0.471,0.377 -0.941,0.755 -1.417,1.125 -0.544,1.053 -1.086,2.105 -1.617,3.158 0.477,-0.351 0.955,-0.708 1.431,-1.065 m 2.397,-5.483 c 0.145,-0.476 0.304,-0.953 0.45,-1.43 -0.072,0.053 -0.146,0.12 -0.212,0.172 -0.278,0.503 -0.542,1.007 -0.814,1.51 -0.073,0.132 -0.139,0.265 -0.206,0.398 0.265,-0.212 0.524,-0.431 0.782,-0.65 m 1.429,-2.23 c -0.052,0.046 -0.105,0.086 -0.158,0.126 -0.04,0.158 -0.093,0.317 -0.14,0.476 0.1,-0.199 0.206,-0.397 0.298,-0.602 m -147.31,13.128 c 0.059,-0.126 0.112,-0.252 0.165,-0.37 0.146,-0.028 0.292,-0.054 0.431,-0.081 0.046,-0.092 0.099,-0.185 0.145,-0.284 0.054,-0.106 0.106,-0.213 0.159,-0.318 0.021,-0.033 0.033,-0.072 0.06,-0.106 0.258,-0.509 0.529,-1.026 0.795,-1.536 0.185,-0.364 0.377,-0.728 0.562,-1.092 0.053,-0.106 0.106,-0.206 0.159,-0.305 0.152,-0.305 0.311,-0.609 0.47,-0.913 0.94,-2.318 1.934,-4.609 2.94,-6.899 0.052,-0.112 0.105,-0.225 0.152,-0.344 -0.685,-0.414 -1.329,-1.025 -1.852,-1.572 l 144.026,0.319 c -0.17,0.359 -0.342,0.717 -0.51,1.081 0.416,-0.356 0.824,-0.721 1.238,-1.079 l 1.886,0.004 c -1.45,1.28 -2.915,2.543 -4.409,3.776 -0.285,0.609 -0.582,1.212 -0.867,1.814 -0.133,0.384 -0.258,0.775 -0.384,1.159 2.608,-2.102 5.093,-4.362 7.45,-6.746 l 3.496,0.008 c -2.898,3.101 -5.993,6.016 -9.291,8.684 -1.026,0.828 -2.066,1.629 -3.125,2.403 -1.072,3.085 -2.211,6.137 -3.469,9.143 -0.233,0.558 -0.477,1.112 -0.719,1.667 l -0.827,0.567 c 1.572,-3.542 2.96,-7.158 4.247,-10.82 -0.171,0.125 -0.351,0.258 -0.53,0.384 -1.622,3.256 -3.283,6.501 -4.991,9.711 -0.454,0.851 -0.914,1.698 -1.375,2.544 l -1.676,1.151 c 0.217,-0.389 0.438,-0.776 0.655,-1.165 2.058,-3.715 4.038,-7.475 5.97,-11.262 -0.436,0.298 -0.88,0.596 -1.323,0.887 -0.047,0.086 -0.093,0.172 -0.133,0.259 -2.063,4.135 -4.207,8.225 -6.524,12.212 l -8.529,5.857 c 2.003,-2.98 3.912,-6.023 5.692,-9.151 0.967,-1.696 1.9,-3.411 2.807,-5.138 -0.628,0.344 -1.257,0.688 -1.893,1.025 -2.89,5.115 -5.999,10.1 -9.185,15.035 l -2,1.373 c 0.149,-0.224 0.298,-0.446 0.446,-0.67 -0.209,0.269 -0.424,0.532 -0.635,0.8 l -11.627,7.986 c 0.309,-0.33 0.621,-0.657 0.928,-0.988 1.371,-2.555 2.715,-5.124 4.045,-7.693 0.662,-1.277 1.318,-2.555 1.966,-3.839 -0.509,0.714 -1.019,1.443 -1.536,2.158 -0.139,0.185 -0.278,0.377 -0.41,0.569 -1.675,3.258 -3.43,6.468 -5.296,9.626 -0.129,0.215 -0.263,0.429 -0.393,0.644 l -13.63,9.361 c 2.017,-2.551 3.97,-5.146 5.801,-7.867 3.402,-5.057 6.434,-10.559 8.976,-16.054 -0.582,0.258 -1.178,0.516 -1.773,0.782 -0.445,0.887 -0.901,1.761 -1.365,2.635 -3.852,7.229 -8.215,14.193 -13.102,20.774 -0.326,0.473 -0.656,0.942 -0.986,1.412 l -74.467,51.14 c -0.57,-0.225 -1.123,-0.545 -1.655,-0.965 -2.707,-2.152 -4.263,-5.39 -4.409,-8.766 -0.034,-0.005 -0.069,-0.013 -0.103,-0.018 l -10.736,-82.981 c 0.022,0.025 0.047,0.046 0.068,0.072"
           style="fill:#f24600;fill-opacity:1;fill-rule:nonzero;stroke:none"
           id="path12091" /><path
           d="m 395.866,610.846 c -2.767,0.218 -5.607,-0.239 -8.368,-0.49 -2.714,-0.245 -5.706,-0.808 -8.381,-0.013 -0.027,0.053 -0.053,0.093 -0.08,0.133 -0.397,0.608 -1.046,0.86 -1.502,1.403 -0.378,0.45 -0.603,1.039 -0.616,1.628 -0.007,0.663 0.218,1.271 0.596,1.814 0.238,0.331 0.556,0.622 0.847,0.927 1.245,0.424 2.542,0.676 3.853,0.755 3.337,0.179 6.481,-0.729 9.288,-2.516 1.688,-1.072 3.185,-2.396 4.707,-3.668 -0.112,0.007 -0.225,0.02 -0.344,0.027 m 8.766,2.291 c -2.006,1.389 -3.933,2.892 -5.787,4.482 -1.172,0.999 -2.317,2.038 -3.449,3.085 -0.682,0.867 -1.363,1.741 -2.072,2.582 v -0.007 c -0.026,0.039 -0.053,0.079 -0.086,0.113 0.205,-0.126 0.404,-0.246 0.616,-0.371 0.45,-0.285 0.9,-0.583 1.337,-0.887 0.159,-0.107 0.305,-0.212 0.463,-0.319 0.292,-0.205 0.583,-0.41 0.868,-0.615 0.179,-0.132 0.357,-0.264 0.536,-0.397 0.265,-0.199 0.536,-0.398 0.808,-0.596 0.218,-0.172 0.443,-0.338 0.662,-0.503 0.305,-0.231 0.602,-0.457 0.9,-0.682 1.853,-1.403 3.72,-2.807 5.707,-4.018 1.463,-0.888 2.977,-1.663 4.526,-2.373 l 7.993,1.179 c -0.138,0.082 -0.271,0.161 -0.39,0.24 -1.205,0.795 -2.397,1.615 -3.602,2.403 -2.37,1.55 -4.693,3.172 -6.965,4.866 -2.303,1.722 -4.549,3.509 -6.772,5.336 -0.126,0.093 -0.245,0.199 -0.364,0.291 0,0 0.006,0 0.013,-0.006 -0.119,0.093 -0.232,0.179 -0.345,0.272 -0.145,0.119 -0.291,0.238 -0.437,0.357 -0.331,0.258 -0.661,0.516 -0.999,0.768 0.125,0.026 0.258,0.047 0.391,0.066 h 0.006 c 0.027,0.014 0.06,0.014 0.086,0.02 0.185,0.033 0.384,0.073 0.569,0.105 0.034,0.007 0.06,0.007 0.093,0.021 0.146,0.026 0.285,0.053 0.431,0.079 0.072,0.014 0.139,0.02 0.205,0.033 0.119,0.02 0.232,0.04 0.344,0.061 0.08,0.012 0.159,0.025 0.225,0.032 0.119,0.02 0.225,0.033 0.344,0.047 0.067,0.012 0.146,0.019 0.225,0.026 0.106,0.013 0.226,0.027 0.331,0.033 0.08,0.006 0.146,0.013 0.226,0.02 0.119,0.007 0.238,0.014 0.364,0.014 0.059,0 0.125,0.005 0.185,0.005 0.186,0 0.365,-0.005 0.549,-0.019 1.43,-0.1 2.848,-0.609 4.258,-0.86 1.568,-0.286 3.15,-0.478 4.733,-0.65 0.377,-0.039 0.761,-0.093 1.146,-0.132 0.017,-0.003 0.037,-0.005 0.055,-0.007 l -7.036,11.145 c -0.599,-0.19 -1.203,-0.366 -1.812,-0.519 -2.031,-0.509 -4.13,-0.828 -6.229,-0.801 -2.079,0.033 -4.198,0.02 -6.276,-0.165 -0.782,-0.252 -1.503,-0.622 -2.231,-1.06 -0.431,-0.252 -0.901,-0.516 -1.331,-0.82 h -0.007 c -0.219,0.046 -0.443,0.079 -0.669,0.119 -0.106,0.013 -0.211,0.026 -0.311,0.039 -0.907,0.53 -2.237,0.378 -3.198,0.014 -0.092,-0.007 -0.171,-0.027 -0.257,-0.067 -5.793,-2.502 -11.149,-5.945 -16.558,-9.162 -5.429,-3.231 -10.851,-6.449 -16.273,-9.68 -4.502,-2.674 -9.216,-5.455 -11.116,-10.631 -0.418,-1.139 -0.716,-2.329 -0.955,-3.536 l 67.804,9.999 c -0.489,0.343 -0.977,0.69 -1.472,1.031"
           style="fill:#f55e00;fill-opacity:1;fill-rule:nonzero;stroke:none"
           id="path12093" /><path
           d="m 408.697,633.878 c 0,0.007 0.006,0.007 0.006,0.007 0.193,0.066 0.391,0.133 0.59,0.205 0.025,0.007 0.039,0.02 0.065,0.02 0.173,0.066 0.359,0.132 0.531,0.205 0.072,0.027 0.145,0.06 0.211,0.086 0.132,0.053 0.258,0.1 0.384,0.16 0.205,0.079 0.411,0.171 0.61,0.257 1.403,0.802 2.845,1.629 3.931,2.821 0.107,0.126 0.213,0.252 0.319,0.383 0.291,0.457 0.504,0.948 0.622,1.477 0.278,-0.344 0.596,-0.655 0.954,-0.881 -0.967,-1.258 -0.086,-2.932 0.562,-4.164 0.629,-1.179 1.556,-2.754 3.039,-2.687 0.145,-0.086 0.292,-0.093 0.423,-0.053 0,-0.014 0,-0.027 0.007,-0.027 -0.007,0 -0.007,0.013 -0.007,0.013 0.013,-0.04 0.027,-0.079 0.034,-0.126 0.04,-0.165 0.086,-0.331 0.126,-0.496 0.026,-0.073 0.052,-0.145 0.072,-0.225 0.047,-0.159 0.099,-0.318 0.152,-0.47 -0.244,0.04 -0.482,0.086 -0.715,0.119 -1.304,0.219 -2.607,0.489 -3.892,0.814 -1.244,0.318 -2.456,0.715 -3.668,1.125 -0.848,0.291 -1.74,0.577 -2.588,0.914 -0.629,0.166 -1.266,0.332 -1.901,0.477 0.04,0.014 0.092,0.033 0.133,0.046 m 7.56,-7.018 c 1.431,-0.086 2.867,-0.072 4.257,0.173 0.723,0.133 1.515,0.445 2.011,0.994 l 10.736,82.981 c -0.943,-0.128 -1.855,-0.437 -2.691,-0.909 -2.621,-1.47 -4.197,-4.17 -5.05,-6.965 -0.815,-2.655 -1.377,-5.654 -1.225,-8.434 0.105,-1.946 0.502,-4.092 1.761,-5.561 -0.279,-0.53 -0.451,-1.125 -0.61,-1.722 -0.397,-0.065 -0.788,-0.225 -1.126,-0.443 -0.932,-0.603 -1.482,-1.635 -1.747,-2.688 -0.079,-0.311 -0.132,-0.676 -0.172,-1.072 -1.152,-0.352 -1.788,-1.781 -2.098,-3.092 -1.291,-0.562 -2.297,-2.741 -2.457,-3.847 -0.026,-0.152 -0.039,-0.311 -0.053,-0.469 -0.397,-0.133 -0.754,-0.438 -1.006,-0.815 -0.676,-1.012 -1.152,-2.337 -1.019,-3.555 -0.08,-0.053 -0.153,-0.106 -0.225,-0.172 -0.888,-0.782 -1.285,-2.351 -1.14,-3.581 -0.026,-0.021 -0.052,-0.034 -0.079,-0.06 -0.781,-0.59 -1.086,-1.722 -1.178,-2.648 -0.066,-0.656 -0.027,-1.417 0.304,-2.013 -0.695,-0.636 -1.073,-1.841 -1.012,-2.649 0.046,-0.588 0.33,-1.059 0.734,-1.37 -0.146,-0.417 -0.198,-0.893 -0.198,-1.377 -0.007,-0.828 0.012,-1.688 0.212,-2.509 -0.755,-1.059 -0.471,-3.072 -0.126,-4.105 0.126,-0.384 0.278,-0.755 0.45,-1.119 -0.06,-0.112 -0.114,-0.231 -0.153,-0.344 -0.343,-0.973 -0.264,-2.324 -0.013,-3.31 0.146,-0.549 0.437,-1.039 0.795,-1.477 0.013,-0.688 0.172,-1.47 0.331,-2.104 -0.013,-0.007 -0.027,-0.007 -0.04,-0.014 -0.795,-0.583 -1.649,-1.099 -2.509,-1.569 -1.14,-0.629 -2.509,-1.384 -3.886,-1.714 -0.82,-0.351 -1.66,-0.655 -2.512,-0.925 l 7.036,-11.145 c 1.22,-0.143 2.459,-0.298 3.698,-0.371"
           style="fill:#f15700;fill-opacity:1;fill-rule:nonzero;stroke:none"
           id="path12095" /></g></g></g></svg>
